<?xml version="1.0" encoding="utf-8"?>
<!-- Generator: Adobe Illustrator 18.0.0, SVG Export Plug-In . SVG Version: 6.00 Build 0)  -->
<!DOCTYPE svg PUBLIC "-//W3C//DTD SVG 1.1//EN" "http://www.w3.org/Graphics/SVG/1.1/DTD/svg11.dtd">
<svg version="1.1" id="Layer_1" xmlns="http://www.w3.org/2000/svg" xmlns:xlink="http://www.w3.org/1999/xlink" x="0px" y="0px"
	 viewBox="0 0 100 100" enable-background="new 0 0 100 100" xml:space="preserve">
<g>
	<defs>
		<path id="SVGID_1_" d="M87,12.7c-4.4-4.4-10.2-6.8-16.5-6.8c-6.2,0-12.1,2.4-16.5,6.8L12.3,54.4c-4.4,4.4-6.8,10.2-6.8,16.5
			S7.9,83,12.3,87.3c4.4,4.4,10.2,6.8,16.5,6.8c6.2,0,12.1-2.4,16.5-6.8L87,45.6C96.1,36.5,96.1,21.7,87,12.7z M84,42.6l-7.5,7.5
			l-23-23c-0.8-0.8-2.2-0.8-3,0c-0.8,0.8-0.8,2.2,0,3l23,23L42.2,84.3c-3.6,3.6-8.4,5.6-13.5,5.6c-5.1,0-9.9-2-13.5-5.6
			c-3.6-3.6-5.6-8.4-5.6-13.5s2-9.9,5.6-13.5l7.5-7.5l21.5,21.4c0.4,0.4,1,0.6,1.5,0.6c0.5,0,1.1-0.2,1.5-0.6c0.8-0.8,0.8-2.2,0-3
			L25.8,46.9l31.2-31.2c3.6-3.6,8.4-5.6,13.5-5.6c5.1,0,9.9,2,13.5,5.6C91.4,23.1,91.4,35.1,84,42.6z M38.4,44.6c1,1,1,2.7,0,3.7
			c-1,1-2.7,1-3.7,0c-1-1-1-2.7,0-3.7S37.4,43.6,38.4,44.6z M46.8,53c1,1,1,2.7,0,3.7s-2.7,1-3.7,0c-1-1-1-2.7,0-3.7
			C44.1,52,45.7,52,46.8,53z M51.4,65.1c-1-1-1-2.7,0-3.7c1-1,2.7-1,3.7,0s1,2.7,0,3.7C54.1,66.1,52.4,66.1,51.4,65.1z M47.6,35.5
			c1,1,1,2.7,0,3.7c-1,1-2.7,1-3.7,0c-1-1-1-2.7,0-3.7C44.9,34.5,46.6,34.5,47.6,35.5z M52.2,47.5c-1-1-1-2.7,0-3.7c1-1,2.7-1,3.7,0
			s1,2.7,0,3.7S53.2,48.6,52.2,47.5z M60.6,55.9c-1-1-1-2.7,0-3.7c1-1,2.7-1,3.7,0c1,1,1,2.7,0,3.7C63.3,56.9,61.6,56.9,60.6,55.9z"
			/>
	</defs>
	<clipPath id="SVGID_2_">
		<use xlink:href="#SVGID_1_"  overflow="visible"/>
	</clipPath>
	<g clip-path="url(#SVGID_2_)">
		<path fill="#FAA950" d="M117.2,44.5c-5.8,0.9-11.5,1.5-17.3,2c-8.5,0.7-16.5,2.9-25.1,1.8c-13.4-1.8-19.5-12.1-25.3-24
			c-5.4-11-7.9-28.2-6.8-40.7c0.7-8.3,3.3-17.3,8.7-21.8c1.7-1.4,5-2.4,7.1-3.4c9.2-4.3,20.9-1.8,31-1.5c18.9,0.6,37.3,4.4,56.1,4.7
			c21.9,0.4,37.3-9,47-28.2c9.6,2.3,19.3,4.7,28.9,6.9c3.9,0.9,7,2.9,9.6,6c4.6,5.5,8.9,11.1,12.5,17.1c4.1,6.8,5.1,13.6-0.3,20.3
			c-0.7,4-3.9,6-6.7,8.2c-14.1,11-29.5,20.1-45.3,28.3C168.3,32.4,143,40.5,117.2,44.5z"/>
		<path fill="#00C1C6" d="M-142.1,41.6c-1.9-9.3-3.8-18.6-2.8-28.2c1-9.7,4.8-17.9,12.9-23.7c3.1-3.4,7-5.5,11.5-6
			c24.7-3,49-1.8,72.3,7.5C-19,2.7,0.7,24.4,15.1,51.5c13.8,25.8,24.8,52.8,34.9,80.1c0.8,2.3,1.8,4.5,2.8,6.7
			c9.4,20.6,22.4,28.5,45,26c35.8-4.1,71.8-6.2,107.4-12.3c8.7-1,14.6-6,19.6-12.9c8.9-12.4,15.4-26.1,22-39.8
			c1.4-2.9,2.3-7,7.2-5.5c4.7,0.2,9.3,0.6,14,0.7c3.8,0.1,5.8,1.9,6.9,5.5c3.6,12.3,5.1,25,6.4,37.7c0.4,4-1.9,6-5.9,5.8
			c-3.2-0.1-6.5,0-9.7-0.3c-4.6-0.5-5.6,1.7-4.7,5.7c2.2,10,0.6,19.3-5.3,27.8c-1.7,2.4-1.9,5.2-2,8.1c-0.2,4.7-0.7,9.3-1,13.9
			c-0.7,10.3-7.2,15.9-16.1,19.2c-2.5,0.9-2.9,2.5-3.5,4.3c-1.7,5.4-3.9,10.6-6.6,15.7c-9.8,18.7-20.2,25.7-50.5,23
			c-18-1.6-30.3-14.2-34.8-34c-1.2-5.1-0.2-11.9-3.2-15c-2.6-2.6-9.5-0.7-14.5-1.2c-7.8-0.7-12.1-4.8-12.2-12.4c0-3.6-1.3-3.8-4-4
			c-5.1-0.4-9.1-3.2-10.2-8.2c-1-4.4-3.7-5-7.2-5.9c-26.2-6.5-53.1-8.8-79.8-12.3c-14.9-1.9-29.8-3.5-44.7-5.2
			c-3.3-0.5-4.8-2.6-5.3-5.7c-1-6-2.1-11.9-3.4-17.9c-0.9-4,0.4-7.6,1.8-11.2c4.7-12.9,9.1-26,11.5-39.6c1.4-8-0.7-12.1-8.2-15.2
			c-0.4-0.2-0.7-0.4-1.1-0.4c-13-0.8-22.1-9.1-31.9-16.2c-3-2.1-6.2-3.9-9.3-5.8c-16.2-10.1-33.6-11.9-52-8.3
			C-135.7,42.8-139.1,45-142.1,41.6z"/>
		<path fill="#F3B4BC" d="M35.4,27.8c-0.1-1.3-0.2-2.5-0.1-3.8c0.1-3.2,0.8-6.4,1.8-9.4c2.2-7.4,5.7-14.4,10.1-20.7
			c2.9-4,6.1-7.7,8.7-11.9c2.6-4.2,3.1-7.9,4.1-12.6c5.8-1.1,8.4,0.9,9.3,7.1C72.5-2,80.7,18.9,85.9,40c1.7,6.7,7,11.3,6.4,18.6
			c-0.7,8.5-8.3,17-17.5,14.3c-2.6-0.8-4.9-2.4-7-4.1c-4.8-3.8-9.2-8.2-13.1-12.9c-1.4-1.7-2.6-4-4.4-5.2c-2.4-1.6-5.2-2-7.5-4.1
			c-2.6-2.4-4-5.8-5.1-9.1C36.5,34.3,35.7,31.1,35.4,27.8z"/>
		<path fill="#F3B4BC" d="M47.4,41.3c5.2,3.7,10.9,4.9,17.1,7c1.9,0.6,3.9,1.3,5.6,2.4c3.8,2.3,6.3,6.6,6.5,11.1
			c0.2,4.7-1.3,9.5,2.5,13.1c3.1,2.9,7.7,3.9,11.4,5.8c4.1,2.1,8.2,4.2,12.2,6.4c2.2,1.2,5.7,2,7.4,3.9c1.4,1.6,2.6,4.6,3,6.5
			c0.4,1.7-8.3-2-9.8-2.7c-2.2-0.9-4.3-2.1-6.4-3.1c-3.8-1.8-7.5-3.8-11.2-5.8c-3.8-2.1-7.5-4.3-11.1-6.7c-3.3-2.2-6.1-5.1-9.4-7.3
			c-4.6-3.1-11.4-6.8-14.2-11.8c-1-1.7-0.8-3.7-1.6-5.4c-1.1-2.6-3.6-4.9-5.6-6.8c-2.2-2.2-4.5-4-5.9-6.8
			c-2.3-4.6-3.3-10.1-2.8-15.2c0.1-0.6,0.1-1.1,0.2-1.6c1.2,6.3,5.2,11.7,10,15.8C46.1,40.4,46.7,40.9,47.4,41.3z"/>
		<path fill="#F3B4BC" d="M56.3-47.9c6.4,2.2,19.7,3.7,23.8,9.7c6.7,9.7-3.9,21.9-10,28.6C62.3-1.1,55,8.9,54.4,20.4
			c-0.3,6.2,0.7,13.5,2.4,19.4c0.6,2,1.3,3.7,1.2,5.8c-0.2,3.1-1.2,6.4-2,9.4c-1.1,3.9-2.5,7.2-4.2,10.8c-1.1,2.4-2.2,4.9-3.2,7.4
			c-1.3,3.4-2,7.6-1.9,11.3c0.2,4.5,1.4,9.1,3.3,13.2c1.5,3.2,3.4,6.3,6.1,8.6c3.1,2.7,6.4,3.8,10.4,3.9c-1,0.3-1.8,1-2.8,1.4
			c-1.1,0.4-2.2,0.7-3.3,0.9c-2.2,0.4-5,0.5-7.1-0.4c-1.5-0.6-2.7-2-4-2.9c-2-1.4-3.8-3.1-5.3-5c-2.8-3.7-4.7-8-6.3-12.4
			c-1.5-4-1.3-8.2-3.3-12.2c-3.4-6.9-7.1-13.8-10.6-20.7c-3.6-6.9-7.1-13.9-10.7-20.8c-1.8-3.5-3.6-6.9-5.3-10.4
			C6.5,24.9,3.5,21,3.1,18c-0.3-2.4,1.4-5.1,2-7.4C5.9,7,6.6,3.4,7.4-0.2c1.5-7.2,2.9-14.4,4.3-21.7c1.7-8.8,1.7-18,4.1-26.7
			c2.1-7.7,5-15,5.7-23.1c0.8-8.1,5.5-14.7,5.7-22.7c7.1,1.1,9.2,11.6,10.5,17.2c1.7,7.4,3.8,14.7,11.4,18.1
			c6.7,3,12.5,7.7,10.8,15.4c-1.6,7.7-7.1,13.6-11.5,19.9C48-23,47.5-22.2,47-21.4"/>
		<path fill="#FAA950" d="M203.1,141.9c-21.6,4.7-43.6,6.2-65.5,8.5c-13.7,1.4-27.4,2.8-41.1,4.2c-7.5,0.8-15,0.7-22.3-1.3
			c-8.1-2.2-14.6-6.5-19.3-13.7c-6-9.1-9.9-19.4-13.7-29.6c-0.7-1.9-1.2-5.3-2.5-6.7c-1.4-1.6-3.8-1.8-5.5-3.1c-1.3-1-2-2.4-3.1-3.5
			c-3.3-3.1-6.4-5.9-8.6-10c-1.8-3.5-2.9-7.3-3.9-11.1c-1.2-4.7-2.3-9.4-3.4-14.1c-2.1-9.7-3.9-19.7-8.5-28.7
			C-4.3,13.1-22.4-4.1-42-14.3c-19.9-10.4-42.6-13.8-64.8-12.8c-9.5,0.4-19.1,0.5-27.8,4.9c6.3-9.4,15-14.7,26.4-15.5
			c2.8-0.2,5.6-0.7,8.3-1.1c3.8-3.3,8.5-1.4,12.7-2.5c2.5-0.6,5.2-0.5,7.7-1c5.7-1.9,10.5-6.1,17-5.7c11.1,0.7,21.4,3.1,30.8,9.6
			C-19.6-29.9-8.6-13.8-0.5,1c6.7,12.3,13.3,24.7,19.7,37.2c2.2,4.4,4,12.4,7.5,15.8c4.2,4,12.2,2.8,17,0.9
			c6.7-2.7,12.8-6.7,19.8-8.7c2.2-0.6,4.5-1,6.8-0.7c2.3,0.4,4.5,1.7,5.5,3.7c1.4,2.8,0.3,6,0.7,9.1c0.5,4.2,3.8,6.7,6.8,9.3
			c3.1,2.7,5.5,6,6.7,10c1,3.3,1.3,7,3,10c1.9,3.3,5.5,5.3,9.2,6.3c4.8,1.3,11.5,2.6,16.5,2.4c7.7-0.2,15.2-2.7,22.8-3
			c5.6-0.2,11.4-0.4,16.9-1.6c15.4-1.7,30.9-2.6,46.1-5.9c2.3-0.5,4.7-1,7.2-0.3c0.6,0.2,1.2,0.5,1.8,0.9c1.3,1.2,1.8,2.8,1.8,4.4
			c-0.2,6.1,1,11.4,6,15.8c2.9,2.5,2.3,5.9-0.9,8.3c-1.8,1.3-3.8,2.3-5.6,3.7c-6.1,4.5-10.7,10-10.4,18.1
			C204.3,138.5,203.6,140.2,203.1,141.9z"/>
	</g>
</g>
</svg>
