<?xml version="1.0" encoding="utf-8"?>
<!-- Generator: Adobe Illustrator 18.0.0, SVG Export Plug-In . SVG Version: 6.00 Build 0)  -->
<!DOCTYPE svg PUBLIC "-//W3C//DTD SVG 1.1//EN" "http://www.w3.org/Graphics/SVG/1.1/DTD/svg11.dtd">
<svg version="1.1" id="Layer_1" xmlns="http://www.w3.org/2000/svg" xmlns:xlink="http://www.w3.org/1999/xlink" x="0px" y="0px"
	 viewBox="0 0 100 100" enable-background="new 0 0 100 100" xml:space="preserve">
<g>
	<defs>
		<path id="SVGID_1_" d="M92.5,22.5c-2.6-4.2-6.4-7.6-11-9.8L81,12.4l-0.2-0.1c-3.5-1.6-7.1-2.3-10.9-2.3c-7.4,0-14.6,3.1-19.6,8.6
			L50,19l-0.4-0.4c-5-5.4-12.2-8.6-19.6-8.6L30,10c-3.8,0-7.6,0.8-11.2,2.5c-4.7,2.2-8.6,5.6-11.3,10c-2.6,4.2-4,9.1-4,14.1
			c0,3.9,0.8,7.7,2.4,11.2c2.3,5,6,10.3,11,15.8c5.6,6.1,12.8,12.4,21.2,18.6c5.9,4.3,10.3,7,11.1,7.6c0.5,0.3,1,0.3,1.4,0l0,0
			c1-0.6,8.9-5.6,17.9-12.8c5.6-4.5,10.4-9,14.4-13.4c5-5.5,8.7-10.8,11-15.8c1.6-3.6,2.4-7.3,2.4-11.2
			C96.5,31.6,95.1,26.7,92.5,22.5z M89.7,46.9c-2,4.5-5.4,9.3-10.1,14.4c-6.5,7.1-14.4,13.4-19.9,17.5c-2.5,1.8-5,3.6-7.5,5.2
			c-0.8,0.6-1.5,1-2,1.3L50,85.4l-0.3-0.2c-2.6-1.6-9.3-6.1-16.8-12.2c-5-4.1-9.4-8.3-13-12.2c-4.4-4.9-7.7-9.6-9.7-13.9
			c-1.4-3.1-2.1-6.3-2.1-9.6c0-4.3,1.2-8.5,3.5-12.1c2.3-3.7,5.7-6.7,9.7-8.6c3-1.4,6.3-2.1,9.6-2.1c3.5,0,6.9,0.8,10,2.3
			c3.1,1.5,5.8,3.7,8,6.5c0.5,0.6,1.6,0.6,2,0c4.3-5.5,11-8.8,18-8.8c3.3,0,6.6,0.7,9.6,2.1l0,0c4,1.9,7.3,4.8,9.6,8.6
			c2.3,3.6,3.5,7.8,3.5,12.1C91.8,40.6,91.1,43.8,89.7,46.9z M32,21.1V25c-8,0-13.1,7-13.1,15H15C15,30,22,21.1,32,21.1z"/>
	</defs>
	<clipPath id="SVGID_2_">
		<use xlink:href="#SVGID_1_"  overflow="visible"/>
	</clipPath>
	<g clip-path="url(#SVGID_2_)">
		<path fill="#F47359" d="M-41.4,7.5c-0.1-0.8-0.2-1.7-0.2-2.6c0-5.6,3.9-10.3,8-14.1c10.8-10.1,24-17.2,37-24.2
			c4.8-2.6,9.9-5,15.4-4.1c6.8,1.2,13.3,3.8,20.4,4.5c5.5,0.5,11.1,0.4,16.6,1.2c15.9,2.2,29.9,11.2,43,20.3
			c15.7,10.8,31.4,22.5,41.5,38.6c6.9,10.8,9.3,24,16.5,34.5c6.2,9,8.4,17.8,1.7,27.7c-1.7,2.5-3.6,5-5.5,7.4
			c-1.3,1.7-2.8,3.3-4.4,4.6c-1.6,1.2-3.5,2.2-5.4,2.2c-5.4,0.1-7.3-7.5-9.4-11.3c-2.9-5.3-6.1-10.4-9.6-15.3
			C101.6,44.1,72.8,17.9,39,0.5C50.3,12.4,61.2,27,71.5,42.2c2.3,6.4,5.6,12.3,8.8,18.3c1.8,3.3,3.6,6.6,4.8,10.2
			c3.4,10.4,5.3,21.3-3.5,29.6c-8.8,8.3-19.4,6.2-29.7,2C38.8,97,29.9,86.6,20.4,77C11,67.7,2.5,57.6-5.2,46.9
			c-8-11.2-17.4-20.6-29.2-27.8C-37.6,15.6-40.6,12.2-41.4,7.5z"/>
		<path fill="#FAA950" d="M67.9,42.4C53.5,25.8,41.5,7.3,26.7-9.2C57.6,4,83.9,23.3,106.5,47.7C116,58,124.8,69,132.2,80.9
			c5.6,9,12.9,20.3,9.5,31.5c-1.4,4.5-4.2,8.4-7,12.2c-2.5,3.4-5.1,6.9-8.6,9.3c-2.7,1.8-5.8,2.9-8.6,4.5c-4.4,2.3-8.2,5.6-12.1,8.7
			c-11.9,9.2-25.2,16.3-38.4,23.3c-7.8,4.1-15.8,8.3-24.5,9.2c-7.6,0.7-15.2-1.1-22.4-3.5c-24.6-8.4-46.6-24.3-62.2-45.1
			c-4.3-5.7-8.2-11.9-10.2-18.8c-0.4-1.3-0.7-2.7-0.4-4c0.5-2,2.2-3.3,3.9-4.4c4.6-2.9,9.5-3.5,14.4-5.7c6.7-3,12.9-8.1,21.1-5.8
			c8.5,4,16.3,8.9,21.8,16.7c2.5,9.6-5.7,12.2-11.2,15.8c-6.4,4.2-6.8,6.8,0,10.8c18,10.3,37,16.4,57.9,15.6
			c7.3-0.2,13.1-1.2,8.5-10.9c-1.4-3-1.9-6.5-0.2-9.8c8.4-5.3,17.6-8.5,27.3-10.3c2.4,0.5,5.4,4.1,6.6-1.5c1.4-7,2.8-13.9-1.1-20.5
			C91.9,77,79.6,59.9,67.9,42.4z"/>
		<path fill="#0094A7" d="M91,121.3c-7.7,6.2-16.7,8.8-26.3,10c-3.1,2.3-6.7,3.6-10.5,2.8c-12-2.5-25-3.4-35.6-10.1
			c-3.8-2.4-5.4-6.2-8.7-9C5,111-1,108.2-6.1,104.3c-3.3-2.6-6.5-5.3-9.7-8c-6.5-5.5-12.9-10.3-17.6-17.5
			C-41,67-46.1,53.7-48.5,39.9c-0.9-4.9-1.4-9.9-1.6-14.9c-0.2-4.1-0.1-8.7,2.8-11.6c3.1-3.2,8.3-3.2,12.3-1.3
			c5.4,2.6,10.5,8.2,15.2,11.9c5.3,4.1,10.1,9,13.9,14.6C6.1,55.9,19.9,71.8,35.5,86c3.8,3.5,11.7,12.3,17.7,9.8
			c1.7-0.7,2.8-2.3,3.8-3.9c2.2-3.5,4.1-7.2,5.2-11.2c2.9-10.1,0.4-21.1,2.4-31.5c0.5-2.8,2.3-5.7,5.6-4.2c2.1,0.9,3.8,3.6,5.3,5.2
			c4,4.4,7.7,9,11,14c6.6,10,11.1,21.3,12.8,33.2c1.3,5.5,0.6,11-0.5,16.4C98,118,96,121.4,91,121.3z"/>
		<path fill="#FAA950" d="M91,121.3c6-6.8,7.4-15.3,8.5-24c5.2,11.3,2.4,21.9-2,32.9C92.8,128.3,93.6,123.6,91,121.3z"/>
	</g>
</g>
</svg>
