<?xml version="1.0" encoding="utf-8"?>
<!-- Generator: Adobe Illustrator 25.2.3, SVG Export Plug-In . SVG Version: 6.00 Build 0)  -->
<svg version="1.1" id="Layer_1" xmlns="http://www.w3.org/2000/svg" xmlns:xlink="http://www.w3.org/1999/xlink" x="0px" y="0px"
	 viewBox="0 0 100 100" style="enable-background:new 0 0 100 100;" xml:space="preserve">
<style type="text/css">
	.st0{clip-path:url(#SVGID_2_);fill:#FAA950;}
	.st1{clip-path:url(#SVGID_2_);fill:#00C1C6;}
	.st2{clip-path:url(#SVGID_2_);fill:#F3B4BC;}
</style>
<g>
	<defs>
		<path id="SVGID_1_" d="M40.8,20.7v13.1c0,5-4,9.1-9,9.1s-9-4.1-9-9.1V20.7c0-1.1-0.9-2-2-2s-2,0.9-2,2v13.1
			c0,7.2,5.8,13.1,13,13.1s13-5.9,13-13.1V20.7c0-1.1-0.9-2-2-2S40.8,19.6,40.8,20.7 M80,76.8c0-2.4,2-4.4,4.4-4.4
			c2.4,0,4.4,2,4.4,4.4s-2,4.4-4.4,4.4C82,81.2,80,79.2,80,76.8 M38,53.7C38,53.7,38,53.7,38,53.7C38,53.7,38,53.7,38,53.7 M29,55.2
			c0-1.4,1.2-2.6,2.6-2.6c1.4,0,2.6,1.2,2.6,2.6c0,1.4-1.2,2.6-2.6,2.6C30.2,57.8,29,56.6,29,55.2 M37.2,51.7c0,0,0,0.1,0.1,0.1
			C37.2,51.8,37.2,51.8,37.2,51.7 M41.1,10c-1.1,0-2,0.9-2,2s0.9,2,2,2h3.1c3.1,0,6,2.3,6,5.4v14.1c0,8.3-5.9,15.3-13.6,17.5
			c-1.2-1.5-3-2.4-5.1-2.4c-2,0-3.8,0.9-5,2.3c0,0,0,0,0,0c-7.6-2.2-13.3-9.2-13.3-17.4V19.4c0-3.1,2.8-5.4,5.9-5.4h3.1
			c1.1,0,2-0.9,2-2s-0.9-2-2-2h-3.1c-5.3,0-9.9,4.1-9.9,9.4v14.1c0,9.9,6.7,18.2,15.8,21.1c0,0.2,0,0.4,0,0.6c0,2.8,1.8,5.2,4.3,6.2
			V74c0,8.8,7.2,16,16,16c8.8,0,16-7.2,16-16V54.5C61.3,48.7,66,44,71.8,44s10.5,4.7,10.5,10.5v14.1c-3,0.9-6.4,4.2-6.4,8.2
			c0,4.6,3.8,8.4,8.5,8.4c4.6,0,8.3-3.8,8.3-8.4c0-3.9-2.4-7.2-6.4-8.1V54.5c0-8-6.5-14.5-14.5-14.5s-14.5,6.5-14.5,14.5V74
			c0,6.6-5.4,12-12,12c-6.6,0-12-5.4-12-12V61.5c2.8-0.8,4.9-3.3,4.9-6.4c0-0.2,0-0.3,0-0.5c9.2-2.7,16.1-11.2,16.1-21.2V19.4
			c0-5.3-4.7-9.4-10-9.4H41.1z"/>
	</defs>
	<clipPath id="SVGID_2_">
		<use xlink:href="#SVGID_1_"  style="overflow:visible;"/>
	</clipPath>
	<path class="st0" d="M126.2,15.7c-5.4,2.3-10.8,4.4-16.3,6.2c-8,2.7-15.3,6.9-23.8,7.9c-13.4,1.6-21.9-6.9-30.4-17
		C47.8,3.5,41.1-12.6,39-24.9c-1.4-8.2-1.1-17.6,3-23.3c1.3-1.8,4.2-3.5,6-5c7.8-6.5,19.8-6.9,29.6-9.1c18.4-4.1,37.2-5,55.5-9.3
		c21.3-5.1,33.9-17.9,38.6-39c9.9-0.1,19.8-0.2,29.7-0.5c4-0.1,7.5,1.1,10.8,3.4c5.8,4.2,11.3,8.5,16.4,13.5
		c5.7,5.6,8.3,11.9,4.8,19.7c0.4,4.1-2.3,6.8-4.5,9.6c-11,14.2-23.6,26.7-36.8,38.7C172.7-8.7,150.2,5.5,126.2,15.7"/>
	<path class="st1" d="M-125.8,77.2c-4.1-8.6-8.3-17.1-9.7-26.7c-1.4-9.6,0.2-18.5,6.7-26.1c2.2-4.1,5.4-7,9.7-8.7
		C-96,6.6-72.1,1.8-47.2,5C-16.2,9,8.3,25.2,29,47.8c19.7,21.6,37.1,45,53.7,69c1.4,2,2.8,4,4.3,5.9c14.2,17.7,28.8,22.1,50,14
		c33.7-12.8,68-23.8,101-38.5c8.2-3.1,12.7-9.5,15.8-17.4c5.6-14.2,8.4-29.1,11.5-44c0.6-3.1,0.5-7.3,5.6-7.1
		c4.6-0.9,9.2-1.8,13.7-2.8c3.7-0.9,6.1,0.4,8,3.6c6.6,11,11.2,22.9,15.6,34.9c1.4,3.8-0.3,6.2-4.3,7.1c-3.2,0.7-6.3,1.6-9.5,2.1
		c-4.6,0.7-5,3-3.2,6.7c4.6,9.1,5.4,18.5,1.8,28.2c-1,2.8-0.6,5.5,0,8.4c1,4.6,1.6,9.2,2.5,13.8c1.9,10.1-3.1,17.2-10.8,22.5
		c-2.2,1.5-2.2,3.1-2.3,5c-0.3,5.7-1.2,11.3-2.5,16.8c-4.9,20.5-13.2,29.9-43.2,34.8c-17.8,2.9-32.9-6.2-42.1-24.3
		c-2.4-4.6-3.1-11.5-6.8-13.7c-3.1-1.9-9.4,1.6-14.3,2.4c-7.7,1.2-12.9-1.6-14.9-9c-0.9-3.5-2.2-3.3-4.9-2.9
		c-5.1,0.8-9.6-0.9-11.9-5.4c-2-4-4.9-4-8.4-3.9c-27,0.2-53.6,4.6-80.4,7.9c-14.9,1.8-29.7,4-44.6,6c-3.3,0.3-5.3-1.4-6.6-4.2
		c-2.5-5.5-5-11-7.8-16.5c-1.8-3.6-1.5-7.5-1.1-11.3c1.4-13.7,2.4-27.4,1.4-41.2C-6.3,86.4-9.4,83-17.4,81.8
		c-0.4-0.1-0.8-0.2-1.2-0.1c-12.8,2.4-23.7-3.4-34.9-7.7c-3.4-1.3-6.9-2.2-10.4-3.3c-18.2-5.8-35.5-3.2-52.4,4.8
		C-119.2,76.8-122,79.8-125.8,77.2"/>
	<path class="st2" d="M42.8,19.9c-0.4-1.2-0.8-2.4-1-3.7C41.1,13,41,9.8,41.2,6.6c0.3-7.7,1.9-15.4,4.7-22.6c1.8-4.6,4-9,5.5-13.7
		c1.5-4.7,1-8.4,0.9-13.3c5.3-2.5,8.4-1.2,10.8,4.6C71.3-18.2,84.4,0,94.7,19.1c3.3,6.1,9.5,9.2,10.8,16.4
		c1.4,8.4-3.8,18.5-13.4,18.2c-2.7-0.1-5.4-1.1-7.8-2.3c-5.6-2.5-10.9-5.6-15.9-9.2c-1.8-1.3-3.5-3.2-5.6-4c-2.7-1-5.6-0.6-8.3-2.1
		c-3.1-1.7-5.3-4.6-7.2-7.6C45.5,25.8,43.9,22.9,42.8,19.9"/>
	<path class="st2" d="M57.7,30c5.9,2.3,11.8,2.1,18.3,2.5c2,0.2,4.1,0.3,6,0.9c4.3,1.3,7.8,4.9,9,9.1c1.3,4.5,1.1,9.5,5.7,12.1
		c3.7,2.1,8.5,1.9,12.5,2.8c4.5,1,9,2,13.4,3.1c2.4,0.6,6,0.5,8.2,1.9c1.8,1.2,3.7,3.8,4.6,5.6c0.8,1.6-8.6,0.1-10.2-0.2
		c-2.3-0.4-4.6-1-7-1.4c-4.1-0.8-8.2-1.8-12.3-2.9c-4.2-1.1-8.4-2.3-12.5-3.8c-3.8-1.3-7.2-3.4-10.9-4.7c-5.3-1.9-12.7-3.8-16.7-7.9
		c-1.4-1.4-1.7-3.3-2.9-4.9c-1.7-2.2-4.7-3.9-7.1-5.2c-2.7-1.6-5.3-2.8-7.4-5.2c-3.4-3.9-5.7-9-6.4-14.1c-0.1-0.6-0.1-1.1-0.2-1.7
		C44.7,22,49.9,26.3,55.6,29C56.3,29.4,57,29.7,57.7,30"/>
	<path class="st2" d="M44.3-58.7c6.7,0.5,20-1.3,25.5,3.5c8.9,7.8,1.7,22.2-2.6,30.2C61.7-14.9,57.1-3.4,59.3,8
		c1.2,6.1,4,12.9,7.2,18.2c1,1.8,2.2,3.2,2.6,5.3c0.6,3.1,0.4,6.4,0.4,9.6c-0.1,4-0.6,7.6-1.4,11.5c-0.5,2.6-0.9,5.3-1.2,7.9
		c-0.4,3.6-0.1,7.9,1,11.4c1.3,4.4,3.6,8.5,6.4,12c2.2,2.7,4.9,5.2,8,6.8c3.6,1.9,7.2,2.1,11.1,1.2c-0.9,0.5-1.5,1.5-2.3,2.1
		c-0.9,0.7-2,1.2-3,1.7c-2,0.9-4.7,1.7-6.9,1.4c-1.6-0.2-3.1-1.2-4.6-1.8c-2.3-0.9-4.4-2-6.4-3.6c-3.7-2.9-6.6-6.6-9.2-10.4
		c-2.4-3.6-3.3-7.6-6.2-11c-5-5.9-10.2-11.6-15.4-17.4C34.1,46.9,29,41,23.8,35.2c-2.6-2.9-5.2-5.8-7.8-8.8c-2-2.2-5.9-5.2-7-8
		c-0.8-2.2,0.1-5.3,0.1-7.7C9.1,7,8.9,3.3,8.7-0.4C8.4-7.7,8-15.1,7.5-22.5c-0.6-9-2.8-17.9-2.6-26.9C5-57.4,6-65.1,4.7-73.1
		c-1.3-8,1.7-15.6-0.1-23.4c7.1-0.7,11.8,8.9,14.4,14.1c3.5,6.8,7.4,13.3,15.5,14.7c7.2,1.2,14,4.4,14.3,12.2
		c0.3,7.8-3.6,14.9-6.2,22.1c-0.3,0.9-0.6,1.8-0.9,2.7"/>
	<path class="st0" d="M238.8,100.3c-19.8,9.9-40.7,16.8-61.4,24.4c-12.9,4.8-25.8,9.5-38.8,14.2c-7.1,2.6-14.3,4.4-21.9,4.3
		c-8.4-0.1-15.8-2.7-22.1-8.5c-8.1-7.4-14.4-16.4-20.6-25.3c-1.1-1.6-2.5-4.8-4.1-5.9c-1.5-1-4.1-0.9-5.8-1.5
		c-4.2-1.6-7.8-4.5-10.9-7.6c-1.1-1.1-2.3-2.4-3-3.8c-0.7-1.4-1.1-3-1.5-4.5c-2.3-9.5-3.9-18-11.1-24.8c-7.3-6.9-13.4-15-20.8-21.8
		C-18,7.4-58.3-0.4-103.3,13.4c-9.1,2.8-18.3,5.2-25.7,11.7c3.8-10.7,10.9-18,21.7-21.6c2.7-0.9,5.2-2,7.8-3.1
		c2.8-4.1,7.9-3.5,11.7-5.6c2.3-1.2,4.9-1.7,7.3-2.9c5-3.2,8.7-8.5,15-9.7C-54.6-19.7-44-20-33.3-16C-19.6-11-4.8,1.9,6.6,14.2
		c9.5,10.3,19,20.7,28.3,31.2c3.3,3.7,6.9,11,11.2,13.5c5,2.8,12.6-0.3,16.7-3.4c5.8-4.3,10.8-9.7,17.1-13.3c2-1.1,4.1-2.1,6.4-2.3
		c2.3-0.2,4.7,0.5,6.2,2.2c2,2.3,1.8,5.8,2.9,8.6c1.6,4,5.4,5.6,8.9,7.3c3.7,1.8,6.8,4.5,8.9,8c1.8,3,2.9,6.4,5.4,8.9
		c2.7,2.7,6.6,3.8,10.4,3.8c5,0,11.8-0.4,16.6-1.7c7.4-2.1,14-6.3,21.4-8.6c5.4-1.6,10.9-3.2,16-5.8c14.5-5.5,29.3-10.1,43.2-17.2
		c2.1-1.1,4.4-2.1,6.9-2.1c0.7,0,1.3,0.2,1.9,0.4c1.5,0.8,2.4,2.2,2.8,3.8c1.4,6,3.8,10.8,9.8,13.8c3.4,1.7,3.7,5.1,1.1,8.3
		c-1.4,1.7-3.1,3.2-4.5,4.9c-4.8,5.9-7.9,12.3-5.6,20.2C239.1,96.7,238.9,98.5,238.8,100.3"/>
</g>
</svg>
