<?xml version="1.0" encoding="utf-8"?>
<!-- Generator: Adobe Illustrator 18.0.0, SVG Export Plug-In . SVG Version: 6.00 Build 0)  -->
<!DOCTYPE svg PUBLIC "-//W3C//DTD SVG 1.1//EN" "http://www.w3.org/Graphics/SVG/1.1/DTD/svg11.dtd">
<svg version="1.1" id="Layer_1" xmlns="http://www.w3.org/2000/svg" xmlns:xlink="http://www.w3.org/1999/xlink" x="0px" y="0px"
	 viewBox="0 0 150 100" enable-background="new 0 0 150 100" xml:space="preserve">
<g>
	<defs>
		<path id="SVGID_1_" d="M129,66V25.4c0-8.9-6.3-15.4-14.9-15.4H55.7C46.9,10,40,16.7,40,25.4v13C29.6,39.3,21,48,21,58.7v3.7
			c-5,0.9-9,5.3-9,10.6v6.3c0,6,5.4,10.6,11.3,10.6H25v-1.8v-26v-3.5c0-9,7.5-16.4,16.5-16.4S58,49.6,58,58.7v3.5v26V90h2.1
			c4,0,7.4-2,9.3-5h55.8c6.7,0,12.7-5.7,12.7-12.4V66H129z M16,79.4v-6.3c0-3.1,3-5.7,5-6.5v19.4C19,85,16,82.4,16,79.4z M67,79.4
			c0,3.1-2,5.7-5,6.5V66.5c3,0.9,5,3.5,5,6.5V79.4z M62,62.4v-3.7c0-10.5-7.8-19.1-18-20.3V25.4C44,19,49.2,14,55.7,14h58.3
			c6.4,0,10.9,4.7,10.9,11.4V66H68.1C66.6,64,65,62.9,62,62.4z M134,72.6c0,4.5-4.2,8.4-8.7,8.4H70.9c0.1-1,0.1-1.1,0.1-1.6v-6.3
			c0-1.1-0.2-2.1-0.5-3.1H134V72.6z M77,21c0-1.1,0.9-2,2-2h11c1.1,0,2,0.9,2,2s-0.9,2-2,2H79C77.9,23,77,22.1,77,21z"/>
	</defs>
	<clipPath id="SVGID_2_">
		<use xlink:href="#SVGID_1_"  overflow="visible"/>
	</clipPath>
	<g clip-path="url(#SVGID_2_)">
		<path fill="#00BFC4" d="M21.8-48.3c0-0.4,0.1-0.7,0.2-1.1c1.1-3.2,4.2-5.3,7.1-7.1c16.6-10.6,35.3-21.6,54.7-18.3
			c7.5,1.3,14.5,4.7,21.8,6.8c11.2,3.2,23.3,3.5,33.8,8.5c13,6.1,21.9,18.7,27.6,31.8c5.7,13.2,8.7,27.3,13.4,40.9
			c7.8,22.7,1.2,46.7-4.7,69.6c-2.6,10.3-6,20.7-13,28.7c-5,5.7-11.5,9.7-18,13.6c-8.1,4.9-15.9,10.2-23.8,15.2
			c-7.7,4.9-19.8,4.8-28.7,4.8c-6.9,0-14.1-0.6-20-4.3c-2.2-1.3-4.2-3.1-5.2-5.4c-2.2-4.8-0.1-10.3,2-15.1c5.2-12,10.4-24,17.7-34.8
			c4.5-6.8,9.8-13.1,13.7-20.2c8.6-15.6,10-34.3,7.2-51.8c-0.9-5.6-3-14.5-8.8-17.1c-4.8-2.2-10.9-1.6-16.2-4
			c-12.5-5.6-23-14.5-34-22.3C43.5-33.6,21.8-41.5,21.8-48.3z"/>
		<path fill="#535098" d="M-12-15.6c0.1-0.6,0.2-1.2,0.3-1.7c2.1-9.1,6.4-17.8,12.6-24.8c2.9-3.4,6.4-6.5,10.5-8.3
			c11.2-5,27.9,6.7,38.1,11.5c13.6,6.4,26.8,13.4,40.3,20.2c12,6,27.5,14.3,31.3,28.4c2.9,10.9-2,19.6-5.5,29.6
			c-4,11.3-8.1,22.7-12.1,34c-0.7,2-1.4,4.1-1.2,6.3c0.4,3.6,3.5,6.5,3.8,10.1c0.3,3.4-1.9,6.5-3.8,9.3c-7.6,11.5-11.2,25-15.1,38.2
			c-0.8,2.9-1.7,5.8-3.6,8.2c-5.8,7.4-18.7,1.7-25.5-2.2c-4.1-2.3-7.9-5.4-12.5-6.6c-3.3-0.9-6.8-0.9-9.7-2.7
			c-8.8-5.4-3.3-20.1-1.9-27.8c1.4-8.2,2.9-16.2,2.9-24.5c0-8.5-2-17.5-6.4-24.6c-5.4-8.8-7.1-20.4-7.1-30.6c0-3.4,1.6-6.9-0.4-10
			C20.3,11.9,14.4,8,10.5,4.6C5.8,0.7-11.3-7.6-12-13.8C-12.1-14.4-12.1-15-12-15.6z"/>
		<path fill="#424242" d="M22,117.6c-6.9,2.8-14.3,3.3-21.5,4.7c-4-1.1-4.8-4.7-5.6-7.9c-1.3-6-4.6-7.2-9.6-4.3
			c-6.5,3.7-12.5,8.7-20.3,4.7c-3.8-1.9-6.7-5.1-9.5-8.3c-1.9-2.2-3.9-4.4-5.8-6.6c-5.2-5.8-10.5-11.8-13.4-19
			C-69,68-61.7,63.1-56.7,53.1c5.4-10.7,7.3-23.2,8.9-34.9c0.7-5.3,0.6-10.6,3.3-15.3c2.9-5.1,4.2-11.1,7.5-16
			c1.8-2.7,4.3-4.8,6.7-6.9c4-3.4,8-6.8,11.9-10.3c1-0.9,2.3-1.8,3.5-1.2c0.7,0.3,1.1,1.2,1.5,1.9C-9-19.4-5.1-9-1.9,1.6
			C0.1,7.9,2,14.6,7,18.9c3.1,2.7,7.2,4.2,10.2,7c2.3,2.1,3.8,4.8,5.4,7.5c1.9,3.3,4,6.5,5.9,9.7c1.3,2.2,3.1,5.2,5.3,6.5
			c0.8,0.5,1.6,0.7,2.4,1.2c1.3,0.8,2.2,2.3,2.8,3.8c1.1,2.7,1.6,5.9,0.3,8.6c-0.9,1.8-2.6,3.2-3.9,4.7c-0.7,0.9-1.4,1.8-1.9,2.9
			c-1.6,3.2-2,7-2.7,10.4c-0.8,4-1.6,7.9-2.4,11.9c-1.6,7.9-3.2,15.8-4.8,23.8C23.1,117.1,22.5,117.4,22,117.6z"/>
	</g>
</g>
</svg>
