<?xml version="1.0" encoding="utf-8"?>
<!-- Generator: Adobe Illustrator 18.0.0, SVG Export Plug-In . SVG Version: 6.00 Build 0)  -->
<!DOCTYPE svg PUBLIC "-//W3C//DTD SVG 1.1//EN" "http://www.w3.org/Graphics/SVG/1.1/DTD/svg11.dtd">
<svg version="1.1" id="Layer_1" xmlns="http://www.w3.org/2000/svg" xmlns:xlink="http://www.w3.org/1999/xlink" x="0px" y="0px"
	 viewBox="0 0 100 100" enable-background="new 0 0 100 100" xml:space="preserve">
<g>
	<defs>
		<path id="SVGID_1_" d="M92.8,79.5l-3.5-15.7c-0.8-3.8-3.9-6.3-7.6-6.8C81.2,49.7,74.9,43,67,42.6V28.7c0-0.2,0-0.3,0-0.5
			c0-0.1,0-0.2,0-0.3v-1.5C67,20.8,62.4,16,56.7,16H51v-1.5c0-3.3-2.2-5.5-5.3-5.5h-8.5c-3.4,0-6.1,2.2-6.1,5.5V16h-5.4
			C19.9,16,15,20.8,15,26.5V50h-2.7C9.4,50,7,51.9,7,54.7v15.4C7,73,9.4,75,12.3,75H15c0.4,5.4,5.1,10,10.5,10h14.3
			c0.3,0.6,0.7,1.3,1.1,1.8c1.7,2.1,4.3,3.2,7,3.2h36c2.7,0,5.3-1,7-3.1C92.8,84.7,93.4,82.2,92.8,79.5z M85,63.6
			c-3.6,4.1-8.3,6.9-13.6,8.1c-1-1.9-3-3.2-5.4-3.2c-2.3,0-4.4,1.3-5.4,3.3c-5.3-1.1-10-3.9-13.7-8c0.8-1.7,2.5-2.7,4.6-2.7h29
			C82.5,61,84.2,61.9,85,63.6z M68.1,74.5c0,1.1-0.9,2.1-2.1,2.1S64,75.6,64,74.5s0.9-2.1,2.1-2.1S68.1,73.3,68.1,74.5z M42.8,63.8
			L42.5,65H30.8c-1.1,0-2,0.9-2,2s0.9,2,2,2h10.8l-2.3,10.3c-0.1,0.6-0.2,1.1-0.2,1.7H26V58.6c0-2.8,2.2-4.6,5-4.6h20.5c0,0,0,0,0,0
			c-0.3,1-0.5,2-0.5,3C47,57.3,43.7,59.8,42.8,63.8z M77.7,57H54.9c0.5-5.6,5.4-10.4,11.4-10.4S77.2,51.4,77.7,57z M35,14.5
			c0-1.1,1-1.5,2.1-1.5h8.5c0.9,0,1.3,0.5,1.3,1.5V16H35V14.5z M25.6,20h31.2c3.5,0,6.3,3,6.3,6.5v2.2c-0.3,5.1-4.5,9.3-9.6,9.3H43
			v-3c0-1.1-0.9-2-2-2s-2,0.9-2,2v3H28.8c-4.7,0-8.8-3.7-9.5-8.3c0-0.3-0.1-0.5-0.3-0.8v-2.5C19,23,22.1,20,25.6,20z M11,70.2V54.7
			c0-0.7,0.6-0.7,1.3-0.7H15v17h-2.7C11.6,71,11,70.8,11,70.2z M19,74.3V37.7c2.5,2.6,6,4.3,9.8,4.3H39v3c0,1.1,0.9,2,2,2s2-0.9,2-2
			v-3h10.4c3.7,0,7.1-1.6,9.6-4v5c-4.1,1-7.5,3.6-9.7,7c-0.6-0.1-1.2,0-1.8,0H31c-5,0-9,3.6-9,8.6v21.2C20.2,78.6,19,76.5,19,74.3z
			 M88,84.3C87,85.5,85.6,86,84,86h-36c-1.5,0-3-0.4-3.9-1.6c-1-1.2-1.3-2.5-1-4l2.7-12.1c4,3.7,8.9,6.3,14.2,7.4
			c0.6,2.8,3,4.9,5.9,4.9c2.9,0,5.4-2.1,5.9-4.9c5.4-1.1,10.3-3.7,14.2-7.5l2.7,12C89.3,81.7,88.9,83.1,88,84.3z"/>
	</defs>
	<clipPath id="SVGID_2_">
		<use xlink:href="#SVGID_1_"  overflow="visible"/>
	</clipPath>
	<g clip-path="url(#SVGID_2_)">
		<path fill="#00BFC4" d="M8.9-23c0-0.3,0-0.5,0.1-0.8c0.9-2.5,3.2-4,5.4-5.4c12.7-8.1,26.9-16.5,41.7-14c5.7,1,11.1,3.6,16.7,5.2
			c8.5,2.5,17.8,2.7,25.8,6.5c9.9,4.7,16.7,14.2,21.1,24.3c4.3,10.1,6.6,20.9,10.2,31.2c6,17.3,0.9,35.6-3.6,53.1
			c-2,7.8-4.6,15.8-9.9,21.9c-3.8,4.3-8.8,7.4-13.7,10.4c-6.1,3.7-12.2,7.8-18.2,11.6c-5.9,3.7-15.1,3.6-21.9,3.7
			c-5.3,0-10.8-0.5-15.3-3.2c-1.7-1-3.2-2.4-4-4.1c-1.7-3.6-0.1-7.9,1.5-11.5c4-9.1,8-18.3,13.5-26.6c3.5-5.2,7.5-10,10.5-15.4
			c6.5-11.9,7.7-26.2,5.5-39.5c-0.7-4.2-2.3-11-6.7-13c-3.6-1.7-8.4-1.2-12.4-3C45.8,3.8,37.8-3,29.4-9C25.5-11.8,8.9-17.9,8.9-23z"
			/>
		<path fill="#424242" d="M-16.9,1.9c0.1-0.4,0.1-0.9,0.2-1.3c1.6-7,4.9-13.6,9.6-19c2.2-2.6,4.9-4.9,8-6.3
			c8.6-3.8,21.3,5.1,29.1,8.7C40.4-11.1,50.5-5.7,60.7-0.6c9.2,4.6,21,10.9,23.9,21.7c0,5,0.9,8.8-1.2,13.6c-2.2,5-4.9,9.9-7,15
			c-1.8,4.4-1.4,9.3-0.9,14c0.4,3.9,1.8,7.8,1.5,11.8c-0.5,7.2-6.7,11.9-12.6,15c-5.2,2.7-9.8,3.9-15.5,3.9c-5,0.1-9.6,2.5-14.9,1.7
			c-3.4-0.5-6.7-1.7-9.9-3.1c-0.8-0.4-1.7-0.7-2.4-1.2c-4.7-3.3-1.2-10-0.4-14.5c0.9-5-0.1-8.7-1.9-13.5c-3.7-9.3-10-17.6-12.2-27.5
			c-0.8-3.7-0.9-7.4-1.6-11.1C4.8,21,3.3,20,0.3,17.4c-3.5-3-16.6-9.4-17.2-14.1C-16.9,2.8-16.9,2.4-16.9,1.9z"/>
		<path fill="#535098" d="M20.5,113.9c-5.3,2.1-10.9,2.5-16.4,3.6c-3.1-0.8-3.7-3.6-4.3-6c-1-4.6-3.5-5.5-7.3-3.3
			c-5,2.8-9.5,6.6-15.5,3.6c-2.9-1.5-5.1-3.9-7.2-6.3c-1.5-1.7-3-3.3-4.5-5c-4-4.5-8-9-10.2-14.5c-4-9.7,1.6-13.5,5.4-21.1
			c4.1-8.2,5.6-17.7,6.8-26.6c0.5-4,0.5-8.1,2.5-11.6c2.2-3.9,3.2-8.5,5.7-12.2c1.4-2.1,3.3-3.7,5.1-5.3c3-2.6,6.1-5.2,9.1-7.8
			c0.8-0.6,1.8-1.3,2.7-0.9C-7,0.4-6.7,1-6.5,1.6c3.4,7.7,6.4,15.7,8.8,23.8c1.5,4.8,3,9.9,6.7,13.2c2.4,2.1,5.5,3.2,7.8,5.3
			c1.7,1.6,2.9,3.7,4.1,5.7c1.4,2.5,3,4.9,4.5,7.4c1,1.7,2.3,3.9,4.1,5c0.6,0.3,1.2,0.5,1.8,0.9c1,0.6,1.6,1.8,2.1,2.9
			c0.8,2.1,1.3,4.5,0.2,6.5c-0.7,1.4-2,2.4-3,3.6c-0.6,0.7-1,1.4-1.4,2.2c-1.2,2.4-1.5,5.3-2,8c-0.6,3-1.2,6-1.8,9.1
			c-1.2,6-2.5,12.1-3.7,18.1C21.3,113.5,20.9,113.7,20.5,113.9z"/>
	</g>
</g>
</svg>
