<?xml version="1.0" encoding="utf-8"?>
<!-- Generator: Adobe Illustrator 18.0.0, SVG Export Plug-In . SVG Version: 6.00 Build 0)  -->
<!DOCTYPE svg PUBLIC "-//W3C//DTD SVG 1.1//EN" "http://www.w3.org/Graphics/SVG/1.1/DTD/svg11.dtd">
<svg version="1.1" id="Layer_1" xmlns="http://www.w3.org/2000/svg" xmlns:xlink="http://www.w3.org/1999/xlink" x="0px" y="0px"
	 viewBox="0 0 100 100" enable-background="new 0 0 100 100" xml:space="preserve">
<g>
	<defs>
		<path id="SVGID_1_" d="M38,72.9v-11c0-1.1,0.9-2,2-2s2,0.9,2,2v11c0,1.1-0.9,2-2,2S38,74,38,72.9z M94.6,26.4
			c0,3.9-1.4,7.4-4,10.2c-0.7,0.8-2,0.9-2.8,0.2s-0.9-1.9-0.2-2.8c1.9-2.1,3-4.8,3-7.7C90.6,20,85.3,15,78.9,15H21.1
			c-6.4,0-11.7,5.1-11.7,11.5S14.7,38,21.1,38H25v-9h-4.5c-1.1,0-2-0.9-2-2s0.9-2,2-2h4.4h50.2h4.4c1.1,0,2,0.9,2,2s-0.9,2-2,2H75
			v47.4C75,83.7,69.2,90,61.9,90H38.1C30.8,90,25,83.7,25,76.4V42h-3.9c-8.6,0-15.7-6.9-15.7-15.5S12.5,11,21.1,11h57.8
			C87.5,11,94.6,17.8,94.6,26.4z M29,29v10.4c0,0.1,0,0.3,0,0.4s0,0.3,0,0.4v36.1c0,5.1,4,9.6,9.1,9.6H56V39.9c0-1.1,0.9-2,2-2
			s2,0.9,2,2V86h1.9c5.1,0,9.1-4.5,9.1-9.6V29H29z"/>
	</defs>
	<clipPath id="SVGID_2_">
		<use xlink:href="#SVGID_1_"  overflow="visible"/>
	</clipPath>
	<g clip-path="url(#SVGID_2_)">
		<path fill="#535098" d="M19.3-9.6c0-0.2,0-0.5,0.1-0.7c0.7-2.1,2.7-3.4,4.6-4.6c10.8-6.9,22.9-14,35.4-11.9
			c4.9,0.8,9.4,3,14.1,4.4c7.3,2.1,15.1,2.3,21.9,5.5c8.4,4,14.2,12.1,17.9,20.6c3.7,8.5,5.6,17.7,8.7,26.5
			c5.1,14.7,0.8,30.2-3,45.1c-1.7,6.6-3.9,13.4-8.4,18.6c-3.2,3.7-7.5,6.3-11.6,8.8c-5.2,3.2-10.3,6.6-15.4,9.8
			c-5,3.2-12.8,3.1-18.6,3.1c-4.5,0-9.2-0.4-13-2.8c-1.4-0.9-2.7-2-3.4-3.5c-1.4-3.1-0.1-6.7,1.3-9.8c3.4-7.7,6.8-15.5,11.5-22.5
			c2.9-4.4,6.4-8.5,8.9-13.1c5.6-10.1,6.5-22.2,4.7-33.6c-0.6-3.6-2-9.4-5.7-11.1c-3.1-1.4-7.1-1.1-10.5-2.6
			c-8.1-3.6-14.9-9.4-22-14.5C33.4,0,19.3-5.2,19.3-9.6z"/>
		<path fill="#00BFC4" d="M-2.6,11.6c0-0.3,0.1-0.7,0.2-1.1C-1.1,4.6,1.8-1,5.8-5.6c1.9-2.2,4.1-4.2,6.8-5.4c4.4-2,9.6,0,13.7,1.8
			c4,1.8,5.9,4.5,9.2,6.9c7.5,5.4,18.6,1.3,26.3,7c3,2.3,5,5.6,7.5,8.4c2.2,2.4,4.7,4.5,7.6,6c2.7,1.5,5.7,2.7,7.2,5.3
			c1.5,2.8,0.7,6.2-0.5,9.2c-2.5,6.2-3.8,12.5-6.5,18.5c-2.2,4.9-4.5,9.9-7.8,14.2c-1.5,1.9-2.8,2.9-3.2,5.3c-0.5,3-0.4,6.1-0.6,9.1
			C65,86.9,64.8,93.1,64,99.2c-0.5,3.1-1.3,6.1-2,9.2c-0.7,2.6-0.9,5.2-2.6,7.4c-3.8,4.8-12.1,1.1-16.5-1.4
			c-2.7-1.5-5.1-3.5-8.1-4.3c-2.1-0.6-4.4-0.6-6.3-1.7c-5.7-3.5-2.1-13-1.3-18c0.9-5,2.5-10.5,1.9-15.6c-0.6-4.8-3.6-8.9-7-12.2
			c-4.1-4-8.8-7.5-11.5-12.5c-3.6-6.9-2.6-15-3.9-22.5c-0.6-3.4-1.5-7.9-4.4-10C-0.1,15.8-2.8,14.9-2.6,11.6z"/>
		<path fill="#424242" d="M27,87.9c-1.1,1-2.3,1.7-3.6,2.3c-3.1,1.2-6.9,0.2-10.3,0.9c-2.6-0.7-3.1-3-3.6-5.1
			c-0.9-3.9-2.9-4.7-6.2-2.8c-4.2,2.4-8.1,5.6-13.2,3.1c-2.4-1.2-4.3-3.3-6.1-5.4c-1.3-1.4-2.5-2.8-3.8-4.3
			c-3.4-3.8-6.8-7.7-8.7-12.3c-3.4-8.3,1.3-11.4,4.6-17.9c3.5-6.9,4.7-15,5.7-22.6c0.8-6.2,2.6-18.9,10.9-20.1
			c1.6-0.2,3,0.8,4.3,1.7c6.4,4.7,13.4,9.3,15.9,17.2c1.7,5.5,1.6,11.4,0.5,17c-0.2,1.2-0.5,2.3-0.3,3.5c0.4,2.3,2.3,3.9,4.4,4.8
			s4.4,1.3,6.4,2.4c3.2,1.6,5.5,4.6,6.9,7.9s1.8,6.9,2.1,10.5c0.3,4.8,0,9.8-2,14.2C29.9,84.6,28.6,86.4,27,87.9z"/>
	</g>
</g>
</svg>
