<?xml version="1.0" encoding="utf-8"?>
<!-- Generator: Adobe Illustrator 18.0.0, SVG Export Plug-In . SVG Version: 6.00 Build 0)  -->
<!DOCTYPE svg PUBLIC "-//W3C//DTD SVG 1.1//EN" "http://www.w3.org/Graphics/SVG/1.1/DTD/svg11.dtd">
<svg version="1.1" id="Layer_1" xmlns="http://www.w3.org/2000/svg" xmlns:xlink="http://www.w3.org/1999/xlink" x="0px" y="0px"
	 viewBox="0 0 150 100" enable-background="new 0 0 150 100" xml:space="preserve">
<g>
	<defs>
		<path id="SVGID_1_" d="M110.5,41.7c-3.4,0-6.8,0.8-9.9,2.3l-0.4,0.1L92,30.5V26h6.3c3.7,0,6.8-3.3,6.8-7s-3-7-6.8-7H86.7
			C83,12,80,15.3,80,19s3,7,6.8,7H89v3H61.5L58,22H47c-1.1,0-2,0.9-2,2s0.9,2,2,2h8.5l2.7,5.3l-7.6,12.8L50.3,44
			c-3.1-1.5-6.5-2.3-9.9-2.3c-12.7,0-23,10.3-23,23s10.3,23,23,23c12.7,0,23-10.3,23-23c0-7.3-3.6-14.3-9.6-18.6l-0.2-0.2l6.7-11.3
			l13.6,27.1c0.3,0.6,0.9,1,1.6,1c0.7,0,1.3-0.4,1.6-1l13.6-27.1l6.7,11.3l-0.2,0.2c-6,4.3-9.6,11.3-9.6,18.6c0,12.7,10.3,23,23,23
			c12.7,0,23-10.3,23-23C133.6,52.1,123.2,41.7,110.5,41.7z M60,64.8c0,10.8-8.8,19.5-19.5,19.5c-10.8,0-19.5-8.7-19.5-19.5
			c0-10.8,8.8-19.5,19.5-19.5c2.8,0,5.5,0.6,8.1,1.8l0.3,0.2l-3.1,5.3l-0.3-0.1c-1.6-0.6-3.3-1-5-1c-7.4,0-13.4,6-13.4,13.4
			s6,13.4,13.4,13.4c7.4,0,13.4-6,13.4-13.4c0-4-1.8-7.8-4.9-10.3l-0.2-0.2l3.1-5.3l0.3,0.2C57.1,52.9,60,58.6,60,64.8z M38.7,65.2
			c0.1,0.5,0.4,0.8,0.8,1.1c0.3,0.2,0.6,0.2,0.9,0.2c0.6,0,1.2-0.3,1.5-0.9l5-8.4l0.3,0.3c2,1.9,3.1,4.4,3.1,7.2
			c0,5.4-4.4,9.9-9.9,9.9c-5.5,0-9.9-4.4-9.9-9.9s4.4-9.9,9.9-9.9c1,0,2,0.2,3,0.5l0.4,0.1l-4.9,8.3C38.7,64.3,38.6,64.8,38.7,65.2z
			 M75.5,57.3L63.3,33h24.4L75.5,57.3z M86.7,22c-1.5,0-2.8-1.5-2.8-3s1.2-3,2.8-3h11.6c1.5,0,2.8,1.5,2.8,3s-1.2,3-2.8,3H86.7z
			 M110.5,84.3C99.8,84.3,91,75.5,91,64.8c0-6.2,2.9-11.8,7.8-15.6l0.3-0.2l3.1,5.3l-0.2,0.2c-3.1,2.6-4.9,6.3-4.9,10.3
			c0,7.4,6,13.4,13.4,13.4c7.4,0,13.4-6,13.4-13.4s-6-13.4-13.4-13.4c-1.7,0-3.4,0.3-5,1l-0.3,0.1l-3.1-5.3l0.3-0.2
			c2.6-1.2,5.3-1.8,8.1-1.8c10.8,0,19.5,8.8,19.5,19.5C130.1,75.5,121.3,84.3,110.5,84.3z M112,63.9l-4.9-8.3l0.4-0.1
			c1.1-0.4,2.1-0.5,3-0.5c5.5,0,9.9,4.4,9.9,9.9s-4.4,9.9-9.9,9.9s-9.9-4.4-9.9-9.9c0-2.7,1.1-5.3,3.1-7.2l0.3-0.3l5,8.4
			c0.5,0.8,1.6,1.1,2.4,0.6C112.3,65.8,112.5,64.7,112,63.9z"/>
	</defs>
	<clipPath id="SVGID_2_">
		<use xlink:href="#SVGID_1_"  overflow="visible"/>
	</clipPath>
	<g clip-path="url(#SVGID_2_)">
		<path fill="#00BFC4" d="M-27.3-58.6c0-0.4,0-0.7,0-1.1c0.7-3.3,3.5-5.8,6.2-7.9c15.2-12.6,32.4-25.8,52-24.9
			c7.6,0.3,15,2.8,22.5,4c11.5,1.8,23.6,0.6,34.6,4.3c13.6,4.5,24,15.8,31.3,28.2c7.3,12.4,12,26.1,18.3,38.9
			c10.6,21.5,7,46.2,4,69.6c-1.4,10.5-3.4,21.3-9.3,30.1c-4.2,6.2-10.2,11-16.2,15.7c-7.4,5.9-14.5,12.1-21.7,18
			c-7,5.8-19.1,7.2-27.9,8.3c-6.9,0.9-14.1,1.1-20.4-1.7c-2.3-1.1-4.5-2.6-5.9-4.7c-2.8-4.4-1.4-10.2,0.1-15.3
			c3.7-12.5,7.4-25.1,13.2-36.7c3.7-7.3,8.1-14.2,11.1-21.7c6.6-16.5,5.7-35.3,0.7-52.3c-1.6-5.4-4.8-14-10.8-15.9
			c-5-1.6-11.1-0.3-16.6-1.9c-13-4-24.6-11.5-36.5-18C-3.9-46.7-26.4-51.9-27.3-58.6z"/>
		<path fill="#535098" d="M-56.8-21.9c0-0.6,0-1.2,0.1-1.8c0.9-9.3,4.2-18.4,9.4-26.2c2.5-3.7,5.5-7.2,9.4-9.5
			c10.5-6.4,28.5,3.2,39.2,6.7c14.3,4.6,28.3,10,42.4,15C56.4-33.3,72.8-27,78.3-13.4c4.2,10.5,0.5,19.7-1.8,30
			c-2.6,11.7-5.2,23.5-7.8,35.2c-0.5,2.1-0.9,4.3-0.4,6.4c0.9,3.5,4.3,6,5,9.5c0.7,3.4-1.1,6.7-2.6,9.7c-6.1,12.3-8,26.2-10.2,39.8
			c-0.5,2.9-1,6-2.5,8.5c-4.8,8.1-18.3,4-25.6,1c-4.4-1.8-8.5-4.4-13.2-5c-3.3-0.5-6.9,0-10-1.4c-9.4-4.3-5.7-19.5-5.4-27.3
			c0.5-11.6,1.1-23.2,1.6-34.8c0.7-14.7,2.5-30.5-9.7-41.4c-8.7-7.8-18-15-27.7-21.5c-5.1-3.4-23.1-9.5-24.6-15.5
			C-56.8-20.8-56.8-21.4-56.8-21.9z"/>
		<path fill="#424242" d="M43.1,147.5c-6.5,3.6-13.8,5.1-20.8,7.3c-4.1-0.6-5.4-4-6.5-7.2c-2.1-5.8-5.4-6.6-10.1-3.1
			c-6,4.5-11.3,10.2-19.6,7.2c-4-1.4-7.2-4.3-10.4-7.1c-2.2-1.9-4.4-3.9-6.6-5.8c-5.9-5.2-11.8-10.4-15.7-17.2
			c-6.8-12-0.1-17.8,3.6-28.4c4-11.3,4.4-23.9,4.5-35.8c0-5.4-0.7-10.6,1.4-15.6c2.3-5.4,2.8-11.5,5.4-16.8c1.4-2.9,3.6-5.3,5.8-7.7
			c3.5-3.9,7-7.8,10.6-11.7c0.9-1,2.1-2,3.3-1.6c0.8,0.2,1.3,1,1.7,1.7c5.7,9.5,10.8,19.4,15.3,29.5c2.7,6,5.4,12.4,10.9,16.1
			c3.4,2.3,7.6,3.3,11,5.7c2.5,1.8,4.4,4.3,6.3,6.8c2.3,3,4.7,5.9,7,8.9c1.6,2,3.7,4.7,6.1,5.8c0.8,0.4,1.7,0.5,2.5,0.9
			c1.4,0.7,2.4,2,3.2,3.4c1.4,2.6,2.4,5.7,1.4,8.5c-0.7,1.9-2.2,3.4-3.3,5.2c-0.6,1-1.1,2-1.5,3.1c-1.2,3.4-1.1,7.2-1.3,10.7
			c-0.3,4-0.6,8.1-0.9,12.1c-0.6,8.1-1.2,16.1-1.8,24.2C44.1,147,43.6,147.2,43.1,147.5z"/>
	</g>
</g>
</svg>
