<?xml version="1.0" encoding="utf-8"?>
<!-- Generator: Adobe Illustrator 18.0.0, SVG Export Plug-In . SVG Version: 6.00 Build 0)  -->
<!DOCTYPE svg PUBLIC "-//W3C//DTD SVG 1.1//EN" "http://www.w3.org/Graphics/SVG/1.1/DTD/svg11.dtd">
<svg version="1.1" id="Layer_1" xmlns="http://www.w3.org/2000/svg" xmlns:xlink="http://www.w3.org/1999/xlink" x="0px" y="0px"
	 viewBox="0 0 100 100" enable-background="new 0 0 100 100" xml:space="preserve">
<path fill="#B7B7B7" d="M92.8,79.5l-3.5-15.7c-0.8-3.8-3.9-6.3-7.6-6.8C81.2,49.7,74.9,43,67,42.6V28.7c0-0.2,0-0.3,0-0.5
	c0-0.1,0-0.2,0-0.3v-1.5C67,20.8,62.4,16,56.7,16H51v-1.5c0-3.3-2.2-5.5-5.3-5.5h-8.5c-3.4,0-6.1,2.2-6.1,5.5V16h-5.4
	C19.9,16,15,20.8,15,26.5V50h-2.7C9.4,50,7,51.9,7,54.7v15.4C7,73,9.4,75,12.3,75H15c0.4,5.4,5.1,10,10.5,10h14.3
	c0.3,0.6,0.7,1.3,1.1,1.8c1.7,2.1,4.3,3.2,7,3.2h36c2.7,0,5.3-1,7-3.1C92.8,84.7,93.4,82.2,92.8,79.5z M85,63.6
	c-3.6,4.1-8.3,6.9-13.6,8.1c-1-1.9-3-3.2-5.4-3.2c-2.3,0-4.4,1.3-5.4,3.3c-5.3-1.1-10-3.9-13.7-8c0.8-1.7,2.5-2.7,4.6-2.7h29
	C82.5,61,84.2,61.9,85,63.6z M68.1,74.5c0,1.1-0.9,2.1-2.1,2.1S64,75.6,64,74.5s0.9-2.1,2.1-2.1S68.1,73.3,68.1,74.5z M42.8,63.8
	L42.5,65H30.8c-1.1,0-2,0.9-2,2s0.9,2,2,2h10.8l-2.3,10.3c-0.1,0.6-0.2,1.1-0.2,1.7H26V58.6c0-2.8,2.2-4.6,5-4.6h20.5c0,0,0,0,0,0
	c-0.3,1-0.5,2-0.5,3C47,57.3,43.7,59.8,42.8,63.8z M77.7,57H54.9c0.5-5.6,5.4-10.4,11.4-10.4S77.2,51.4,77.7,57z M35,14.5
	c0-1.1,1-1.5,2.1-1.5h8.5c0.9,0,1.3,0.5,1.3,1.5V16H35V14.5z M25.6,20h31.2c3.5,0,6.3,3,6.3,6.5v2.2c-0.3,5.1-4.5,9.3-9.6,9.3H43v-3
	c0-1.1-0.9-2-2-2s-2,0.9-2,2v3H28.8c-4.7,0-8.8-3.7-9.5-8.3c0-0.3-0.1-0.5-0.3-0.8v-2.5C19,23,22.1,20,25.6,20z M11,70.2V54.7
	c0-0.7,0.6-0.7,1.3-0.7H15v17h-2.7C11.6,71,11,70.8,11,70.2z M19,74.3V37.7c2.5,2.6,6,4.3,9.8,4.3H39v3c0,1.1,0.9,2,2,2s2-0.9,2-2
	v-3h10.4c3.7,0,7.1-1.6,9.6-4v5c-4.1,1-7.5,3.6-9.7,7c-0.6-0.1-1.2,0-1.8,0H31c-5,0-9,3.6-9,8.6v21.2C20.2,78.6,19,76.5,19,74.3z
	 M88,84.3C87,85.5,85.6,86,84,86h-36c-1.5,0-3-0.4-3.9-1.6c-1-1.2-1.3-2.5-1-4l2.7-12.1c4,3.7,8.9,6.3,14.2,7.4
	c0.6,2.8,3,4.9,5.9,4.9c2.9,0,5.4-2.1,5.9-4.9c5.4-1.1,10.3-3.7,14.2-7.5l2.7,12C89.3,81.7,88.9,83.1,88,84.3z"/>
</svg>
