<?xml version="1.0" encoding="utf-8"?>
<!-- Generator: Adobe Illustrator 18.0.0, SVG Export Plug-In . SVG Version: 6.00 Build 0)  -->
<!DOCTYPE svg PUBLIC "-//W3C//DTD SVG 1.1//EN" "http://www.w3.org/Graphics/SVG/1.1/DTD/svg11.dtd">
<svg version="1.1" id="Layer_1" xmlns="http://www.w3.org/2000/svg" xmlns:xlink="http://www.w3.org/1999/xlink" x="0px" y="0px"
	 viewBox="0 0 150 100" enable-background="new 0 0 150 100" xml:space="preserve">
<g>
	<path fill="#B7B7B7" d="M129,66V25.4c0-8.9-6.3-15.4-14.9-15.4H55.7C46.9,10,40,16.7,40,25.4v13C29.6,39.3,21,48,21,58.7v3.7
		c-5,0.9-9,5.3-9,10.6v6.3c0,6,5.4,10.6,11.3,10.6H25v-1.8v-26v-3.5c0-9,7.5-16.4,16.5-16.4S58,49.6,58,58.7v3.5v26V90h2.1
		c4,0,7.4-2,9.3-5h55.8c6.7,0,12.7-5.7,12.7-12.4V66H129z M16,79.4v-6.3c0-3.1,3-5.7,5-6.5v19.4C19,85,16,82.4,16,79.4z M67,79.4
		c0,3.1-2,5.7-5,6.5V66.5c3,0.9,5,3.5,5,6.5V79.4z M62,62.4v-3.7c0-10.5-7.8-19.1-18-20.3V25.4C44,19,49.2,14,55.7,14h58.3
		c6.4,0,10.9,4.7,10.9,11.4V66H68.1C66.6,64,65,62.9,62,62.4z M134,72.6c0,4.5-4.2,8.4-8.7,8.4H70.9c0.1-1,0.1-1.1,0.1-1.6v-6.3
		c0-1.1-0.2-2.1-0.5-3.1H134V72.6z"/>
	<path fill="#B7B7B7" d="M79,23h11c1.1,0,2-0.9,2-2s-0.9-2-2-2H79c-1.1,0-2,0.9-2,2S77.9,23,79,23z"/>
</g>
</svg>
