<?xml version="1.0" encoding="utf-8"?>
<!-- Generator: Adobe Illustrator 25.2.3, SVG Export Plug-In . SVG Version: 6.00 Build 0)  -->
<svg version="1.1" id="Layer_1" xmlns="http://www.w3.org/2000/svg" xmlns:xlink="http://www.w3.org/1999/xlink" x="0px" y="0px"
	 viewBox="0 0 100 100" style="enable-background:new 0 0 100 100;" xml:space="preserve">
<style type="text/css">
	.st0{fill:#B7B7B7;}
</style>
<path class="st0" d="M40.8,20.7v13.1c0,5-4,9.1-9,9.1s-9-4.1-9-9.1V20.7c0-1.1-0.9-2-2-2s-2,0.9-2,2v13.1c0,7.2,5.8,13.1,13,13.1
	s13-5.9,13-13.1V20.7c0-1.1-0.9-2-2-2S40.8,19.6,40.8,20.7 M80,76.8c0-2.4,2-4.4,4.4-4.4c2.4,0,4.4,2,4.4,4.4s-2,4.4-4.4,4.4
	C82,81.2,80,79.2,80,76.8 M38,53.7C38,53.7,38,53.7,38,53.7C38,53.7,38,53.7,38,53.7 M29,55.2c0-1.4,1.2-2.6,2.6-2.6
	c1.4,0,2.6,1.2,2.6,2.6c0,1.4-1.2,2.6-2.6,2.6C30.2,57.8,29,56.6,29,55.2 M37.2,51.7c0,0,0,0.1,0.1,0.1
	C37.2,51.8,37.2,51.8,37.2,51.7 M41.1,10c-1.1,0-2,0.9-2,2s0.9,2,2,2h3.1c3.1,0,6,2.3,6,5.4v14.1c0,8.3-5.9,15.3-13.6,17.5
	c-1.2-1.5-3-2.4-5.1-2.4c-2,0-3.8,0.9-5,2.3c0,0,0,0,0,0c-7.6-2.2-13.3-9.2-13.3-17.4V19.4c0-3.1,2.8-5.4,5.9-5.4h3.1
	c1.1,0,2-0.9,2-2s-0.9-2-2-2h-3.1c-5.3,0-9.9,4.1-9.9,9.4v14.1c0,9.9,6.7,18.2,15.8,21.1c0,0.2,0,0.4,0,0.6c0,2.8,1.8,5.2,4.3,6.2
	V74c0,8.8,7.2,16,16,16c8.8,0,16-7.2,16-16V54.5C61.3,48.7,66,44,71.8,44s10.5,4.7,10.5,10.5v14.1c-3,0.9-6.4,4.2-6.4,8.2
	c0,4.6,3.8,8.4,8.5,8.4c4.6,0,8.3-3.8,8.3-8.4c0-3.9-2.4-7.2-6.4-8.1V54.5c0-8-6.5-14.5-14.5-14.5s-14.5,6.5-14.5,14.5V74
	c0,6.6-5.4,12-12,12c-6.6,0-12-5.4-12-12V61.5c2.8-0.8,4.9-3.3,4.9-6.4c0-0.2,0-0.3,0-0.5c9.2-2.7,16.1-11.2,16.1-21.2V19.4
	c0-5.3-4.7-9.4-10-9.4H41.1z"/>
</svg>
