<?xml version="1.0" encoding="utf-8"?>
<!-- Generator: Adobe Illustrator 18.0.0, SVG Export Plug-In . SVG Version: 6.00 Build 0)  -->
<!DOCTYPE svg PUBLIC "-//W3C//DTD SVG 1.1//EN" "http://www.w3.org/Graphics/SVG/1.1/DTD/svg11.dtd">
<svg version="1.1" id="Layer_1" xmlns="http://www.w3.org/2000/svg" xmlns:xlink="http://www.w3.org/1999/xlink" x="0px" y="0px"
	 viewBox="0 0 100 100" enable-background="new 0 0 100 100" xml:space="preserve">
<path fill="#B7B7B7" d="M87,12.7c-4.4-4.4-10.2-6.8-16.5-6.8c-6.2,0-12.1,2.4-16.5,6.8L12.3,54.4c-4.4,4.4-6.8,10.2-6.8,16.5
	S7.9,83,12.3,87.3c4.4,4.4,10.2,6.8,16.5,6.8c6.2,0,12.1-2.4,16.5-6.8L87,45.6C96.1,36.5,96.1,21.7,87,12.7z M84,42.6l-7.5,7.5
	l-23-23c-0.8-0.8-2.2-0.8-3,0c-0.8,0.8-0.8,2.2,0,3l23,23L42.2,84.3c-3.6,3.6-8.4,5.6-13.5,5.6c-5.1,0-9.9-2-13.5-5.6
	c-3.6-3.6-5.6-8.4-5.6-13.5s2-9.9,5.6-13.5l7.5-7.5l21.5,21.4c0.4,0.4,1,0.6,1.5,0.6c0.5,0,1.1-0.2,1.5-0.6c0.8-0.8,0.8-2.2,0-3
	L25.8,46.9l31.2-31.2c3.6-3.6,8.4-5.6,13.5-5.6c5.1,0,9.9,2,13.5,5.6C91.4,23.1,91.4,35.1,84,42.6z M38.4,44.6c1,1,1,2.7,0,3.7
	c-1,1-2.7,1-3.7,0c-1-1-1-2.7,0-3.7S37.4,43.6,38.4,44.6z M46.8,53c1,1,1,2.7,0,3.7s-2.7,1-3.7,0c-1-1-1-2.7,0-3.7
	C44.1,52,45.7,52,46.8,53z M51.4,65.1c-1-1-1-2.7,0-3.7c1-1,2.7-1,3.7,0s1,2.7,0,3.7C54.1,66.1,52.4,66.1,51.4,65.1z M47.6,35.5
	c1,1,1,2.7,0,3.7c-1,1-2.7,1-3.7,0c-1-1-1-2.7,0-3.7C44.9,34.5,46.6,34.5,47.6,35.5z M52.2,47.5c-1-1-1-2.7,0-3.7c1-1,2.7-1,3.7,0
	s1,2.7,0,3.7S53.2,48.6,52.2,47.5z M60.6,55.9c-1-1-1-2.7,0-3.7c1-1,2.7-1,3.7,0c1,1,1,2.7,0,3.7C63.3,56.9,61.6,56.9,60.6,55.9z"/>
</svg>
