<?xml version="1.0" encoding="utf-8"?>
<!-- Generator: Adobe Illustrator 18.0.0, SVG Export Plug-In . SVG Version: 6.00 Build 0)  -->
<!DOCTYPE svg PUBLIC "-//W3C//DTD SVG 1.1//EN" "http://www.w3.org/Graphics/SVG/1.1/DTD/svg11.dtd">
<svg version="1.1" id="Layer_1" xmlns="http://www.w3.org/2000/svg" xmlns:xlink="http://www.w3.org/1999/xlink" x="0px" y="0px"
	 viewBox="0 0 100 100" enable-background="new 0 0 100 100" xml:space="preserve">
<g>
	<path fill="#B7B7B7" d="M40,74.9c1.1,0,2-0.9,2-2v-11c0-1.1-0.9-2-2-2s-2,0.9-2,2v11C38,74,38.9,74.9,40,74.9z"/>
	<path fill="#B7B7B7" d="M78.9,11H21.1c-8.6,0-15.7,6.9-15.7,15.5S12.5,42,21.1,42H25v34.4C25,83.7,30.8,90,38.1,90h23.8
		C69.2,90,75,83.7,75,76.4V29h4.5c1.1,0,2-0.9,2-2s-0.9-2-2-2h-4.4H24.9h-4.4c-1.1,0-2,0.9-2,2s0.9,2,2,2H25v9h-3.9
		c-6.4,0-11.7-5.1-11.7-11.5S14.7,15,21.1,15h57.8c6.4,0,11.7,5,11.7,11.4c0,2.9-1.1,5.5-3,7.7c-0.7,0.8-0.7,2,0.2,2.8
		s2.1,0.6,2.8-0.2c2.6-2.9,4-6.4,4-10.2C94.6,17.8,87.5,11,78.9,11z M71,29v47.4c0,5.1-4,9.6-9.1,9.6H60V39.9c0-1.1-0.9-2-2-2
		s-2,0.9-2,2V86H38.1C33,86,29,81.5,29,76.4V40.3c0-0.1,0-0.3,0-0.4s0-0.3,0-0.4V29H71z"/>
</g>
</svg>
