<?xml version="1.0" encoding="utf-8"?>
<!-- Generator: Adobe Illustrator 18.0.0, SVG Export Plug-In . SVG Version: 6.00 Build 0)  -->
<!DOCTYPE svg PUBLIC "-//W3C//DTD SVG 1.1//EN" "http://www.w3.org/Graphics/SVG/1.1/DTD/svg11.dtd">
<svg version="1.1" id="Layer_1" xmlns="http://www.w3.org/2000/svg" xmlns:xlink="http://www.w3.org/1999/xlink" x="0px" y="0px"
	 viewBox="0 0 150 100" enable-background="new 0 0 150 100" xml:space="preserve">
<path fill="#B7B7B7" d="M110.5,41.7c-3.4,0-6.8,0.8-9.9,2.3l-0.4,0.1L92,30.5V26h6.3c3.7,0,6.8-3.3,6.8-7s-3-7-6.8-7H86.7
	C83,12,80,15.3,80,19s3,7,6.8,7H89v3H61.5L58,22H47c-1.1,0-2,0.9-2,2s0.9,2,2,2h8.5l2.7,5.3l-7.6,12.8L50.3,44
	c-3.1-1.5-6.5-2.3-9.9-2.3c-12.7,0-23,10.3-23,23s10.3,23,23,23c12.7,0,23-10.3,23-23c0-7.3-3.6-14.3-9.6-18.6l-0.2-0.2l6.7-11.3
	l13.6,27.1c0.3,0.6,0.9,1,1.6,1c0.7,0,1.3-0.4,1.6-1l13.6-27.1l6.7,11.3l-0.2,0.2c-6,4.3-9.6,11.3-9.6,18.6c0,12.7,10.3,23,23,23
	c12.7,0,23-10.3,23-23C133.6,52.1,123.2,41.7,110.5,41.7z M60,64.8c0,10.8-8.8,19.5-19.5,19.5c-10.8,0-19.5-8.7-19.5-19.5
	c0-10.8,8.8-19.5,19.5-19.5c2.8,0,5.5,0.6,8.1,1.8l0.3,0.2l-3.1,5.3l-0.3-0.1c-1.6-0.6-3.3-1-5-1c-7.4,0-13.4,6-13.4,13.4
	s6,13.4,13.4,13.4c7.4,0,13.4-6,13.4-13.4c0-4-1.8-7.8-4.9-10.3l-0.2-0.2l3.1-5.3l0.3,0.2C57.1,52.9,60,58.6,60,64.8z M38.7,65.2
	c0.1,0.5,0.4,0.8,0.8,1.1c0.3,0.2,0.6,0.2,0.9,0.2c0.6,0,1.2-0.3,1.5-0.9l5-8.4l0.3,0.3c2,1.9,3.1,4.4,3.1,7.2
	c0,5.4-4.4,9.9-9.9,9.9c-5.5,0-9.9-4.4-9.9-9.9s4.4-9.9,9.9-9.9c1,0,2,0.2,3,0.5l0.4,0.1l-4.9,8.3C38.7,64.3,38.6,64.8,38.7,65.2z
	 M75.5,57.3L63.3,33h24.4L75.5,57.3z M86.7,22c-1.5,0-2.8-1.5-2.8-3s1.2-3,2.8-3h11.6c1.5,0,2.8,1.5,2.8,3s-1.2,3-2.8,3H86.7z
	 M110.5,84.3C99.8,84.3,91,75.5,91,64.8c0-6.2,2.9-11.8,7.8-15.6l0.3-0.2l3.1,5.3l-0.2,0.2c-3.1,2.6-4.9,6.3-4.9,10.3
	c0,7.4,6,13.4,13.4,13.4c7.4,0,13.4-6,13.4-13.4s-6-13.4-13.4-13.4c-1.7,0-3.4,0.3-5,1l-0.3,0.1l-3.1-5.3l0.3-0.2
	c2.6-1.2,5.3-1.8,8.1-1.8c10.8,0,19.5,8.8,19.5,19.5C130.1,75.5,121.3,84.3,110.5,84.3z M112,63.9l-4.9-8.3l0.4-0.1
	c1.1-0.4,2.1-0.5,3-0.5c5.5,0,9.9,4.4,9.9,9.9s-4.4,9.9-9.9,9.9s-9.9-4.4-9.9-9.9c0-2.7,1.1-5.3,3.1-7.2l0.3-0.3l5,8.4
	c0.5,0.8,1.6,1.1,2.4,0.6C112.3,65.8,112.5,64.7,112,63.9z"/>
</svg>
