<svg xmlns="http://www.w3.org/2000/svg" xmlns:xlink="http://www.w3.org/1999/xlink" width="90" height="124" viewBox="0 0 90 124">
  <defs>
    <clipPath id="clip-_09">
      <rect width="90" height="124"/>
    </clipPath>
  </defs>
  <g id="_09" data-name="09" clip-path="url(#clip-_09)">
    <rect width="90" height="124" fill="#fff"/>
    <g id="Grupo_1000" data-name="Grupo 1000" transform="translate(-50.5 -43.277)">
      <rect id="Rectángulo_193" data-name="Rectángulo 193" width="77.721" height="110.447" rx="12" transform="translate(56.5 50.277)" fill="#2e2e2e" stroke="#00bfc4" stroke-miterlimit="10" stroke-width="2"/>
      <path id="Trazado_511" data-name="Trazado 511" d="M398.975,297.942a24.611,24.611,0,1,0,5.755,48.538l-2.372-7.175a17.084,17.084,0,1,1,11.612-8.553l6.61,3.592a24.615,24.615,0,0,0-21.6-36.4Z" transform="translate(-303.634 -228.312)" fill="#00bfc4"/>
      <path id="Trazado_512" data-name="Trazado 512" d="M401.234,322.627a12.918,12.918,0,0,1-4.928,3.5l5.791,17.532a31.428,31.428,0,0,0,15.512-12.151Z" transform="translate(-296.176 -219.922)" fill="#00bfc4"/>
      <line id="Línea_7" data-name="Línea 7" x2="76" transform="translate(57.5 136.705)" fill="#fff" stroke="#00bfc4" stroke-miterlimit="10" stroke-width="2"/>
      <line id="Línea_8" data-name="Línea 8" x2="14.739" transform="translate(87.5 147.423)" fill="none" stroke="#00bfc4" stroke-linecap="round" stroke-miterlimit="10" stroke-width="2"/>
    </g>
  </g>
</svg>
