<?xml version="1.0" encoding="utf-8"?>
<!-- Generator: Adobe Illustrator 18.0.0, SVG Export Plug-In . SVG Version: 6.00 Build 0)  -->
<!DOCTYPE svg PUBLIC "-//W3C//DTD SVG 1.1//EN" "http://www.w3.org/Graphics/SVG/1.1/DTD/svg11.dtd">
<svg version="1.1" id="Layer_1" xmlns="http://www.w3.org/2000/svg" xmlns:xlink="http://www.w3.org/1999/xlink" x="0px" y="0px"
	 viewBox="0 0 100 100" enable-background="new 0 0 100 100" xml:space="preserve">
<path fill="#424242" d="M86.2,40.1L55.6,10.4c-1.7-1.7-4-2.6-6.4-2.6c-2.4,0-4.7,0.9-6.4,2.6L12.2,40.1c-2,1.9-3,4.6-2.8,7.4
	c0.2,2.8,1.6,5.2,3.9,6.8l1.3,0.9l0,29c0,2.5,1,4.5,2.7,6.3c1.7,1.7,4.1,2.5,6.5,2.5h50.6c2.5,0,4.8-0.7,6.5-2.5
	c1.7-1.7,2.7-3.9,2.7-6.4l0-29l1.3-0.9c2.3-1.6,3.7-4.1,3.9-6.8C89.2,44.7,88.2,42.1,86.2,40.1z M85,47.2c-0.1,1.6-0.9,3-2.3,3.9
	l-3,2.1l0,31.1c0,1.4-0.6,2.5-1.6,3.5c-1,1-2.3,1.3-3.8,1.3H41V56h17.6c1.1,0,2-0.9,2-2s-0.9-2-2-2H37v37H23.9
	c-1.4,0-2.8-0.3-3.8-1.3c-1-1-1.6-2.2-1.6-3.6l0-31l-3-2c-1.3-0.9-2.1-2.3-2.3-3.9c-0.1-1.6,0.5-3.1,1.6-4.2l30.6-29.7
	c1-1,2.3-1.5,3.7-1.5s2.7,0.5,3.7,1.5L83.4,43C84.6,44.1,85.2,45.6,85,47.2z"/>
</svg>
