<?xml version="1.0" encoding="utf-8"?>
<!-- Generator: Adobe Illustrator 18.0.0, SVG Export Plug-In . SVG Version: 6.00 Build 0)  -->
<!DOCTYPE svg PUBLIC "-//W3C//DTD SVG 1.1//EN" "http://www.w3.org/Graphics/SVG/1.1/DTD/svg11.dtd">
<svg version="1.1" id="Layer_1" xmlns="http://www.w3.org/2000/svg" xmlns:xlink="http://www.w3.org/1999/xlink" x="0px" y="0px"
	 viewBox="0 0 100 100" enable-background="new 0 0 100 100" xml:space="preserve">
<g>
	<defs>
		<path id="SVGID_1_" d="M87,40L56.4,10.3c-1.7-1.7-4-2.6-6.4-2.6c-2.4,0-4.7,0.9-6.4,2.6L13,40c-2,1.9-3,4.6-2.8,7.4
			c0.2,2.8,1.6,5.2,3.9,6.8l1.3,0.9l0,29c0,2.5,1,4.1,2.7,5.9c1.7,1.7,4.1,2,6.5,2h50.6c2.5,0,4.8-0.3,6.5-2
			c1.7-1.7,2.7-3.7,2.7-6.2l0-28.8l1.3-0.8c2.3-1.6,3.7-4,3.9-6.8C90,44.6,89,41.9,87,40z M85.9,47c-0.1,1.6-0.9,3-2.3,3.9l-3,2.1
			l0,31.1c0,1.4-0.6,2-1.6,3c-1,1-2.3,0.8-3.8,0.8H42V55h17.4c1.1,0,2-0.9,2-2s-0.9-2-2-2H38v37H24.7c-1.4,0-2.8,0.2-3.8-0.8
			c-1-1-1.6-2-1.6-3.4l0-30.9l-3-2c-1.3-0.9-2.1-2.3-2.3-3.9c-0.1-1.6,0.5-3.1,1.6-4.2l30.6-29.7c1-1,2.3-1.5,3.7-1.5
			s2.7,0.5,3.7,1.5l30.6,29.7C85.4,43.9,86,45.5,85.9,47z"/>
	</defs>
	<clipPath id="SVGID_2_">
		<use xlink:href="#SVGID_1_"  overflow="visible"/>
	</clipPath>
	<g clip-path="url(#SVGID_2_)">
		<path fill="#FAA950" d="M-83.3,3c-0.1-0.8-0.2-1.7-0.2-2.6c0-5.6,3.9-10.3,8-14.1c10.8-10.1,24-17.2,37-24.2
			c4.8-2.6,9.9-5,15.4-4.1c6.8,1.2,13.3,3.8,20.4,4.5c5.5,0.5,11.1,0.4,16.6,1.2c15.9,2.2,29.9,11.2,43,20.3
			C72.6-5.2,88.3,6.5,98.5,22.6c6.9,10.8,9.3,24,16.5,34.5c6.2,9,8.4,17.8,1.7,27.7c-1.7,2.5-3.6,5-5.5,7.4
			c-1.3,1.7-2.8,3.3-4.4,4.6c-1.6,1.2-3.5,2.2-5.4,2.2c-5.4,0.1-7.3-7.5-9.4-11.3c-2.9-5.3-6.1-10.4-9.6-15.3
			C59.7,39.5,30.9,13.3-2.9-4.1C8.4,7.9,19.3,22.5,29.6,37.7C31.9,44,35.2,50,38.4,56c1.8,3.3,3.6,6.6,4.8,10.2
			c3.4,10.4,5.3,21.3-3.5,29.6c-8.8,8.3-19.4,6.2-29.7,2C-3.1,92.5-12,82-21.5,72.5c-9.3-9.3-17.9-19.4-25.5-30.1
			c-8-11.2-17.4-20.6-29.2-27.8C-79.5,11.1-82.5,7.6-83.3,3z"/>
		<path fill="#0094A7" d="M26,37.9C11.6,21.3-0.4,2.7-15.2-13.7C15.7-0.5,42,18.8,64.6,43.2c9.5,10.3,18.3,21.3,25.7,33.2
			c5.6,9,12.9,20.3,9.5,31.5c-1.4,4.5-4.2,8.4-7,12.2c-2.5,3.4-5.1,6.9-8.6,9.3c-2.7,1.8-5.8,2.9-8.6,4.5c-4.4,2.3-8.2,5.6-12.1,8.7
			c-11.9,9.2-25.2,16.3-38.4,23.3c-7.8,4.1-15.8,8.3-24.5,9.2c-7.6,0.7-15.2-1.1-22.4-3.5c-24.6-8.4-46.6-24.3-62.2-45.1
			c-4.3-5.7-8.2-11.9-10.2-18.8c-0.4-1.3-0.7-2.7-0.4-4c0.5-2,2.2-3.3,3.9-4.4c4.6-2.9,9.5-3.5,14.4-5.7c6.7-3,12.9-8.1,21.1-5.8
			c8.5,4,16.3,8.9,21.8,16.7c2.5,9.6-5.7,12.2-11.2,15.8c-6.4,4.2-6.8,6.8,0,10.8c18,10.3,37,16.4,57.9,15.6
			c7.3-0.2,13.1-1.2,8.5-10.9c-1.4-3-1.9-6.5-0.2-9.8c8.4-5.3,17.6-8.5,27.3-10.3c2.4,0.5,5.4,4.1,6.6-1.5c1.4-7,2.8-13.9-1.1-20.5
			c-0.5-2.6-1.2-5.2-2-7.8c-0.6-1.9-0.6-4-1.6-5.7c-2.2-3.7-6.1-6-9-9.1c-2.7-2.8-4.6-6.3-5.6-10.1c-1.1-4-1.1-8.2-2.8-12
			C31.4,45,28.4,41.5,26,37.9z"/>
		<path fill="#F47359" d="M53.1,136.8c-7.7,6.2-16.7,8.8-26.3,10c-3.1,2.3-6.7,3.6-10.5,2.8c-12-2.5-25-3.4-35.6-10.1
			c-3.8-2.4-5.4-6.2-8.7-9c-4.9-4-10.9-6.9-15.9-10.8c-3.3-2.6-6.5-5.3-9.7-8c-6.5-5.5-12.9-10.3-17.6-17.5
			c-7.6-11.8-12.7-25-15.1-38.8c-0.9-4.9-1.4-9.9-1.6-14.9c-0.2-4.1-0.1-8.7,2.8-11.6c3.1-3.2,8.3-3.2,12.3-1.3
			c5.4,2.6,10.5,8.2,15.2,11.9c5.3,4.1,10.1,9,13.9,14.6c12,17.3,25.8,33.1,41.4,47.3c3.8,3.5,11.7,12.3,17.7,9.8
			c1.7-0.7,2.8-2.3,3.8-3.9c2.2-3.5,4.1-7.2,5.2-11.2C27.2,86,24.8,75,26.8,64.7c0.5-2.8,2.3-5.7,5.6-4.2c2.1,0.9,3.8,3.6,5.3,5.2
			c4,4.4,7.7,9,11,14c6.6,10,11.1,21.3,12.8,33.2c1.3,5.5,0.6,11-0.5,16.4C60.1,133.4,58.2,136.8,53.1,136.8z"/>
		<path fill="#FAA950" d="M49.1,116.8c6-6.8,7.4-15.3,8.5-24c5.2,11.3,2.4,21.9-2,32.9C50.9,123.7,51.7,119.1,49.1,116.8z"/>
	</g>
</g>
</svg>
