<svg xmlns="http://www.w3.org/2000/svg" xmlns:xlink="http://www.w3.org/1999/xlink" width="393" height="600" viewBox="0 0 393 600">
  <defs>
    <clipPath id="clip-Menu_pasos_mobile">
      <rect width="393" height="600"/>
    </clipPath>
  </defs>
  <g id="Menu_pasos_mobile" data-name="Menu pasos mobile" clip-path="url(#clip-Menu_pasos_mobile)">
    <rect width="393" height="600" fill="#fff"/>
    <path id="Trazado_258" data-name="Trazado 258" d="M1617.8,1770.75c36.494,22.492,50.033,68.7,55.176,111.255,4.623,38.258,4.788,77.656-5.958,114.664-6.066,20.89-15.484,40.626-24.862,60.253,63.744-40.841,131.206-86.038,159.49-156.261a213.105,213.105,0,0,0,13.966-59.044c2.086-21.5,1.006-44.585-10.976-62.559-9.345-14.018-24.334-23.336-39.847-29.905-39.184-16.595-89.01-16.133-119.813,13.224" transform="translate(-1410.902 -1586.484)" fill="#535098"/>
    <path id="Trazado_256" data-name="Trazado 256" d="M73.554.879c24.848-2.625,46.437,1.07,70.429,5.268C168.439,10.426,189.4,8.183,212.375,20.8c35.052,19.245,57.061,54.034,82.637,83.465,27.94,32.15,61.817,58.059,104.527,66.043,22.769,4.256,46.344,3.615,68.821,9.217a94.231,94.231,0,0,1,22.39,8.589,84.733,84.733,0,0,1,10.527,6.915c3.1,2.345,6.35,3.837,9.085,6.758A118.219,118.219,0,0,1,520.4,214.06c1.713,2.41,3.407,5.137,3.163,8.084a2.346,2.346,0,0,1-.419,1.293,2.318,2.318,0,0,1-.692.541,8.631,8.631,0,0,1-6.42.53c-7.654-2.05-15.082-4.753-22.681-6.8a128.154,128.154,0,0,0-19.415-3.655c-20.34-2.3-39.868-2.018-60.006,2.741-8.052,1.9-15.956,4.379-23.851,6.852-44.287,13.874-89.023,32.162-135.031,37.373-44.186,5-89.726.089-130.763-17.547-29.636-12.736-59.008-36.129-79.842-60.669a189.951,189.951,0,0,1-33.022-56.2C3.972,106.715-1.2,81.524.242,60.242c1.121-16.548,9.3-33.4,23.942-41.19C40.763,10.228,54.205,2.923,73.554.879Z" transform="matrix(0.788, -0.616, 0.616, 0.788, -37.639, 438.82)" fill="#f67359"/>
    <path id="Trazado_257" data-name="Trazado 257" d="M432.02,70.93c13.3-8.218,26.883-16.007,40.246-23.89,8.306-4.9,17.627-11.661,17.415-21.3-.131-5.947-4.087-11.175-8.676-14.961a43.313,43.313,0,0,0-30.779-9.493c-12.635,1.04-25.048,0-37.91-.8-20.954-1.3-41.8.47-62.729.014a306.479,306.479,0,0,0-35.319,1.12c-9.3.874-17.615,4.139-26.575,5.4-11.226,1.579-23.508-.369-34.911.376C213.541,9.958,171.415,11.468,140.8,39.355a106.915,106.915,0,0,0-33.034,60.106c-3.5,20.021-1.209,40.792-5.509,60.656-9.6,44.347-44.164,86.088-75.559,117.3C19.4,284.675,9.815,296.477,0,299.884a73.925,73.925,0,0,0,9.094,5.355q4.987,2.719,10.13,5.141a196.478,196.478,0,0,0,65.439,17.866q8.486.787,17.018.819c42.9.15,86.834-14.369,123.624-36.082a153.1,153.1,0,0,0,34.7-27.455,114.84,114.84,0,0,0,13.761-18.06c3.522-5.76,8.374-9.8,12.571-15.1,28.627-36.2,49.168-78.407,81.281-111.837C386.521,100.853,408.853,85.241,432.02,70.93Z" transform="translate(300.015 381.218) rotate(-155)" fill="#00c1c6"/>
    <path id="Trazado_259" data-name="Trazado 259" d="M245.709,185.52c.45-.641.926-1.262,1.411-1.86,2.774-3.418,6.043-6.563,7.78-10.608,5.006-11.658-7.381-22.6-17.047-26.043-27.057-9.64-57.7,2.021-85.5-5.191-19.079-4.95-34.784-18.26-48.874-32.043A473.284,473.284,0,0,1,41.357,35.03C36.139,27.247,31.1,19.24,24.472,12.615S9.341.76,0,0C11.717,28.268,20.929,57.948,35.533,84.9a285.852,285.852,0,0,0,23.8,36.838q6.781,8.914,14.242,17.282c4.382,4.915,9.479,8.509,13.921,13.241,14.26,15.19,30.583,28.669,49.023,38.484,12.445,6.624,25.518,10.334,39.016,13.716,18.438,4.62,37.111,9.193,56.181,6.729,5.137-.664,11.321-2.88,11.928-8.024.3-2.544-.961-5-1.243-7.545C242,192.008,243.585,188.542,245.709,185.52Z" transform="translate(482.78 100.295) rotate(104)" fill="#0094a7"/>
    <path id="Trazado_260" data-name="Trazado 260" d="M1150.951,1949.56c-6.953-26.338-22.781-49.763-47.953-63.395-41.128-22.273-90.634-12.09-134.034-3.884-29.885,5.651-59.524,13.762-89.921,14.813a197.076,197.076,0,0,1-126.266-40.747l96.005,126.365c34.533,45.453,74.141,86.909,129.542,106.083,27.66,9.573,57.977,12.391,86.788,6.833,24.395-4.707,47.383-16.965,63.344-36.227C1152.852,2029.962,1160.793,1986.843,1150.951,1949.56Z" transform="translate(-869.62 -1657.459)" fill="#fcab50"/>
    <path id="Trazado_261" data-name="Trazado 261" d="M523.028,1908.921c-9.071-2.933-17.391-7.913-25.574-12.712-2.275-1.334-4.615-2.725-6.171-4.854-3.512-4.8-.476-12.091.805-17.11-2.955-6.3,4.939-18.3,8.279-23.622a76.709,76.709,0,0,1,17.6-19.584,5.585,5.585,0,0,1,1.836-1.079c1.54-.441,3.106.431,4.619.958,3.961,1.38,10.106-2.321,14.288-2.623,1.578-.114,14.541.656,14.274,3.151-1.172,10.969-3.459,21.336-9.3,31.194a266.791,266.791,0,0,0-13.4,25.656C527.6,1894.2,526.666,1904.013,523.028,1908.921Z" transform="translate(-429.574 -1747.485)" fill="#0094a7"/>
    <path id="Trazado_268" data-name="Trazado 268" d="M602.148,1849.975c-18.492,9.053-27.335,26.092-35.894,43.366-2.564-1.931-5.171-3.807-7.685-5.8-15.842-12.571-15.852-12.592-3.224-29.251,9.511-12.545,20.97-22.367,36.656-26.407,6.586-1.7,11.307-1.737,9.857,7.412C601.31,1842.751,602.014,1846.408,602.148,1849.975Z" transform="translate(-454.502 -1758.011)" fill="#535098"/>
    <g id="Grupo_839" data-name="Grupo 839" transform="translate(249.576 228.448)">
      <path id="Trazado_262" data-name="Trazado 262" d="M1677.092,1922.862c-4.473-.206-7.8,3.937-10.162,7.744-5.4,8.729-6.783,18.856-10.727,28.319a1.368,1.368,0,0,0,.688,2.184l4.278,2.241a5.342,5.342,0,0,0,3.124.881,5.122,5.122,0,0,0,2.326-1.225c6.463-5.077,16.581-14.491,17.96-22.978.568-3.5,1-7.149-.031-10.54S1680.633,1923.026,1677.092,1922.862Z" transform="translate(-1655.935 -1922.855)" fill="#efefef"/>
      <path id="Trazado_263" data-name="Trazado 263" d="M1702.967,1977.024a3.059,3.059,0,0,0-1.969-1.036c-3.268-.544-6.256,1.816-8.592,4.164a78.543,78.543,0,0,0-11.347,14.455c-1.788,2.93-3.429,6.16-3.318,9.591a20.081,20.081,0,0,0,2.193,7.349,10.184,10.184,0,0,0,1.969,3.255,3.465,3.465,0,0,0,3.491.981,5.072,5.072,0,0,0,2.157-2.023q4.384-6.182,8.379-12.627c4.16-6.711,8.121-14.129,7.632-22.009A3.8,3.8,0,0,0,1702.967,1977.024Z" transform="translate(-1661.875 -1937.312)" fill="#e2e2e2"/>
      <path id="Trazado_264" data-name="Trazado 264" d="M1685.052,2074.328c4.014,1.139,8.678,2.177,12.072-.25a12.172,12.172,0,0,0,3.093-3.659c3.989-6.477,6.334-14.672,3.425-21.7-1.253-3.025-3.372-5.422-5.266-8.038-1.246-1.721-2.011-4.617-4.791-4.091-2.687.509-4.889,3.564-6.478,5.56a94.68,94.68,0,0,0-6.378,9.043,21.853,21.853,0,0,0-3.086,6.773,24.755,24.755,0,0,0,.145,8.429,10.215,10.215,0,0,0,1.474,4.8C1680.584,2073,1682.9,2073.718,1685.052,2074.328Z" transform="translate(-1661.764 -1953.83)" fill="#e2e2e2"/>
      <path id="Trazado_266" data-name="Trazado 266" d="M1747.808,2057.42c1.063-3.729,1.974-8.151-.488-11.147a10.031,10.031,0,0,0-4.919-2.882,27.741,27.741,0,0,0-5.14-1.078,5.877,5.877,0,0,0-3.415.373,6.073,6.073,0,0,0-1.878,1.809c-3.186,4.2-7.1,9.974-7.219,15.409-.1,4.627,1.652,13.9,7.942,13.239a9.116,9.116,0,0,0,4.057-1.83C1742.6,2067.3,1745.868,2064.228,1747.808,2057.42Z" transform="translate(-1674.685 -1955.383)" fill="#e2e2e2"/>
      <path id="Trazado_267" data-name="Trazado 267" d="M1642.189,2065.661a59.483,59.483,0,0,0,7.924,13.511,3.323,3.323,0,0,0,3.983,1.565c2.34-.382,4.951-1.168,5.971-3.308.717-1.5.435-3.264.3-4.924a26.14,26.14,0,0,1,.844-9.1c.72-2.615,1.852-5.132,2.2-7.822s-.265-5.729-2.413-7.384a10.7,10.7,0,0,0-4.454-1.67,5.212,5.212,0,0,0-1.735-.159,5.752,5.752,0,0,0-2.335,1.13c-2.4,1.607-5.019,2.9-7.265,4.717s-4.148,4.316-4.4,7.2A13.377,13.377,0,0,0,1642.189,2065.661Z" transform="translate(-1564.06 -1987.858)" fill="#e2e2e2"/>
    </g>
    <path id="Trazado_265" data-name="Trazado 265" d="M1745.445,2001.168c8.342-4.893,12.958-14.231,16.125-23.368a10.707,10.707,0,0,0,.825-4.2,3.845,3.845,0,0,0-2.241-3.408,5.439,5.439,0,0,0-3.388.228,54.47,54.47,0,0,0-7.1,2.676,17.336,17.336,0,0,0-2.667,1.45,20.573,20.573,0,0,0-4.61,5.034c-3.675,5.04-7.549,10.967-6.119,17.039.74,3.142,3.6,6.153,6.777,5.56A7.582,7.582,0,0,0,1745.445,2001.168Z" transform="translate(-1436.668 -1658.949)" fill="#efefef"/>
  </g>
</svg>
