<svg xmlns="http://www.w3.org/2000/svg" xmlns:xlink="http://www.w3.org/1999/xlink" width="393" height="600" viewBox="0 0 393 600">
  <defs>
    <clipPath id="clip-path">
      <rect id="Rectángulo_197" data-name="Rectángulo 197" width="393" height="433" transform="translate(0 167)" fill="#fff" stroke="#707070" stroke-width="1"/>
    </clipPath>
    <clipPath id="clip-Menu_pasos_mobile">
      <rect width="393" height="600"/>
    </clipPath>
  </defs>
  <g id="Menu_pasos_mobile" data-name="Menu pasos mobile" clip-path="url(#clip-Menu_pasos_mobile)">
    <rect width="393" height="600" fill="#fff"/>
    <g id="Enmascarar_grupo_13" data-name="Enmascarar grupo 13" clip-path="url(#clip-path)">
      <path id="Trazado_259" data-name="Trazado 259" d="M245.709,185.52c.45-.641.926-1.262,1.411-1.86,2.774-3.418,6.043-6.563,7.78-10.608,5.006-11.658-7.381-22.6-17.047-26.043-27.057-9.64-57.7,2.021-85.5-5.191-19.079-4.95-34.784-18.26-48.874-32.043A473.284,473.284,0,0,1,41.357,35.03C36.139,27.247,31.1,19.24,24.472,12.615S9.341.76,0,0C11.717,28.268,20.929,57.948,35.533,84.9a285.852,285.852,0,0,0,23.8,36.838q6.781,8.914,14.242,17.282c4.382,4.915,9.479,8.509,13.921,13.241,14.26,15.19,30.583,28.669,49.023,38.484,12.445,6.624,25.518,10.334,39.016,13.716,18.438,4.62,37.111,9.193,56.181,6.729,5.137-.664,11.321-2.88,11.928-8.024.3-2.544-.961-5-1.243-7.545C242,192.008,243.585,188.542,245.709,185.52Z" transform="translate(302.529 201.407) rotate(104)" fill="#0094a7"/>
      <path id="Trazado_257" data-name="Trazado 257" d="M432.02,70.93c13.3-8.218,26.883-16.007,40.246-23.89,8.306-4.9,17.627-11.661,17.415-21.3-.131-5.947-4.087-11.175-8.676-14.961a43.313,43.313,0,0,0-30.779-9.493c-12.635,1.04-25.048,0-37.91-.8-20.954-1.3-41.8.47-62.729.014a306.479,306.479,0,0,0-35.319,1.12c-9.3.874-17.615,4.139-26.575,5.4-11.226,1.579-23.508-.369-34.911.376C213.541,9.958,171.415,11.468,140.8,39.355a106.915,106.915,0,0,0-33.034,60.106c-3.5,20.021-1.209,40.792-5.509,60.656-9.6,44.347-44.164,86.088-75.559,117.3C19.4,284.675,9.815,296.477,0,299.884a73.925,73.925,0,0,0,9.094,5.355q4.987,2.719,10.13,5.141a196.478,196.478,0,0,0,65.439,17.866q8.486.787,17.018.819c42.9.15,86.834-14.369,123.624-36.082a153.1,153.1,0,0,0,34.7-27.455,114.84,114.84,0,0,0,13.761-18.06c3.522-5.76,8.374-9.8,12.571-15.1,28.627-36.2,49.168-78.407,81.281-111.837C386.521,100.853,408.853,85.241,432.02,70.93Z" transform="matrix(-0.866, 0.5, -0.5, -0.866, 526.7, 461.069)" fill="#00c1c6"/>
      <path id="Trazado_260" data-name="Trazado 260" d="M1150.951,1949.56c-6.953-26.338-22.781-49.763-47.953-63.395-41.128-22.273-90.634-12.09-134.034-3.884-29.885,5.651-59.524,13.762-89.921,14.813a197.076,197.076,0,0,1-126.266-40.747l96.005,126.365c34.533,45.453,74.141,86.909,129.542,106.083,27.66,9.573,57.977,12.391,86.788,6.833,24.395-4.707,47.383-16.965,63.344-36.227C1152.852,2029.962,1160.793,1986.843,1150.951,1949.56Z" transform="translate(2330.76 257.23) rotate(112)" fill="#fcab50"/>
      <path id="Trazado_256" data-name="Trazado 256" d="M51.841,1.223C69.354-2.429,84.57,2.711,101.479,8.552c17.237,5.953,32.01,2.832,48.2,20.383,24.7,26.774,40.217,75.174,58.243,116.119,19.692,44.728,43.569,80.774,73.671,91.882,16.048,5.922,32.664,5.029,48.505,12.822a54.173,54.173,0,0,1,15.781,11.95,77.519,77.519,0,0,1,7.419,9.621c2.183,3.263,4.476,5.338,6.4,9.4,2.548,5.372,4.912,11.081,7.072,17.078a29.5,29.5,0,0,1,2.229,11.246,5.674,5.674,0,0,1-.3,1.8,2.5,2.5,0,0,1-.487.752,3.485,3.485,0,0,1-4.525.737c-5.394-2.852-10.63-6.613-15.985-9.456a52.881,52.881,0,0,0-13.683-5.085c-14.336-3.2-28.1-2.808-42.292,3.813a167.292,167.292,0,0,0-16.81,9.533c-31.213,19.3-62.744,44.745-95.17,51.995-31.143,6.963-63.239.124-92.162-24.412-20.888-17.719-41.589-50.263-56.273-84.4-9.96-23.156-17.878-49.734-23.274-78.184C2.8,148.464-.846,113.418.17,83.81.96,60.787,6.725,37.346,17.045,26.5,28.73,14.229,38.2,4.067,51.841,1.223Z" transform="translate(79.52 653.279) rotate(-121)" fill="#f67359"/>
    </g>
  </g>
</svg>
