<svg xmlns="http://www.w3.org/2000/svg" width="1398.812" height="382.917" viewBox="0 0 1398.812 382.917"><g transform="translate(-60 -1738.492)"><rect width="1309.52" height="306.271" transform="translate(60 1776.815)" fill="#f2f2f2"/><g transform="translate(82 -7.867)"><path d="M1441.893,1763.571c-33.877-3.579-63.311,1.458-96.02,7.182-33.343,5.834-61.919,2.775-93.244,19.975-47.788,26.238-77.8,73.668-112.665,113.793-38.092,43.832-84.279,79.156-142.508,90.041-31.043,5.8-63.184,4.929-93.828,12.565a128.48,128.48,0,0,0-30.526,11.71,115.507,115.507,0,0,0-14.352,9.428c-4.223,3.2-8.658,5.231-12.386,9.213a161.157,161.157,0,0,0-13.681,16.736c-2.336,3.285-4.644,7-4.313,11.021a3.2,3.2,0,0,0,.572,1.763,3.158,3.158,0,0,0,.943.737,11.768,11.768,0,0,0,8.753.722c10.435-2.794,20.562-6.48,30.922-9.266a174.722,174.722,0,0,1,26.469-4.983c27.731-3.136,54.355-2.751,81.809,3.737,10.977,2.594,21.753,5.97,32.518,9.342,60.379,18.915,121.371,43.849,184.1,50.954,60.242,6.823,122.329.121,178.278-23.924,40.405-17.364,80.45-49.256,108.854-82.714a258.977,258.977,0,0,0,45.021-76.618c10.152-27.122,17.2-61.467,15.239-90.482-1.528-22.562-12.68-45.533-32.642-56.157C1486.6,1776.317,1468.273,1766.358,1441.893,1763.571Z" transform="translate(-224.529 1.611)" fill="#f67359"/><path d="M866.477,1822.111c15.431-9.532,31.182-18.567,46.682-27.71,9.635-5.683,20.445-13.525,20.2-24.708-.152-6.9-4.74-12.961-10.064-17.354a50.239,50.239,0,0,0-35.7-11.011c-14.656,1.206-29.053,0-43.972-.924-24.3-1.511-48.486.546-72.76.017a355.5,355.5,0,0,0-40.967,1.3c-10.79,1.014-20.432,4.8-30.824,6.263-13.021,1.832-27.266-.428-40.493.436-45.515,2.97-94.377,4.722-129.888,37.069a124.011,124.011,0,0,0-38.317,69.717c-4.06,23.222-1.4,47.314-6.39,70.355-11.137,51.438-51.226,99.854-87.641,136.055-8.468,8.419-19.582,22.108-30.966,26.06a85.766,85.766,0,0,0,10.548,6.212q5.785,3.153,11.75,5.963a227.9,227.9,0,0,0,75.9,20.723q9.843.912,19.74.95c49.763.174,100.719-16.667,143.392-41.852a177.579,177.579,0,0,0,40.249-31.846,133.205,133.205,0,0,0,15.962-20.947c4.085-6.681,9.713-11.362,14.581-17.517,33.2-41.984,57.03-90.944,94.278-129.72C813.7,1856.819,839.606,1838.71,866.477,1822.111Z" transform="translate(-98.377 7.751)" fill="#00c1c6"/><path d="M1617.8,1770.75c36.494,22.492,50.033,68.7,55.176,111.255,4.623,38.258,4.788,77.656-5.958,114.664-6.066,20.89-15.484,40.626-24.862,60.253,63.744-40.841,131.206-86.039,159.49-156.262a213.105,213.105,0,0,0,13.966-59.044c2.086-21.5,1.006-44.585-10.976-62.559-9.345-14.018-24.334-23.336-39.847-29.905-39.184-16.595-89.01-16.133-119.813,13.224" transform="translate(-439.647 8.213)" fill="#535098"/><path d="M1103.349,1805.42c.522.743,1.074,1.464,1.637,2.158,3.218,3.965,7.01,7.613,9.024,12.3,5.807,13.522-8.561,26.214-19.772,30.208-31.383,11.181-66.921-2.344-99.169,6.021-22.13,5.741-40.346,21.179-56.688,37.167a548.956,548.956,0,0,0-72.059,86.7c-6.052,9.028-11.9,18.315-19.585,26s-17.55,13.751-28.385,14.632c13.591-32.788,24.275-67.214,41.214-98.473a331.537,331.537,0,0,1,27.609-42.728q7.865-10.339,16.519-20.045c5.083-5.7,10.994-9.87,16.147-15.358,16.54-17.619,35.473-33.254,56.862-44.638,14.435-7.683,29.6-11.986,45.254-15.909,21.386-5.358,43.045-10.662,65.165-7.8,5.958.77,13.131,3.341,13.835,9.307.348,2.951-1.115,5.8-1.442,8.752C1099.051,1797.894,1100.885,1801.914,1103.349,1805.42Z" transform="translate(-221.808 -1.788)" fill="#0094a7"/><path d="M1150.951,2005.244c-6.953,26.338-22.781,49.763-47.953,63.395-41.128,22.273-90.634,12.09-134.034,3.884-29.885-5.651-59.523-13.762-89.921-14.813a197.075,197.075,0,0,0-126.266,40.747l96.005-126.365c34.533-45.453,74.141-86.91,129.542-106.083,27.66-9.573,57.977-12.391,86.788-6.833,24.395,4.707,47.383,16.965,63.344,36.227C1152.852,1924.842,1160.793,1967.961,1150.951,2005.244Z" transform="translate(-203.939 -23.996)" fill="#fcab50"/><path d="M523.028,1908.921c-9.071-2.933-17.391-7.913-25.574-12.712-2.275-1.334-4.615-2.725-6.171-4.854-3.512-4.8-.476-12.091.805-17.11-2.955-6.3,4.939-18.3,8.279-23.622a76.707,76.707,0,0,1,17.6-19.584,5.585,5.585,0,0,1,1.836-1.079c1.54-.441,3.106.431,4.619.958,3.961,1.38,10.106-2.321,14.288-2.623,1.578-.114,14.541.656,14.274,3.151-1.172,10.969-3.459,21.336-9.3,31.194a266.792,266.792,0,0,0-13.4,25.656C527.6,1894.2,526.666,1904.013,523.028,1908.921Z" transform="translate(-132.238 -16.349)" fill="#0094a7"/><g transform="translate(1194.867 1880.737)"><path d="M1677.092,1922.862c-4.473-.206-7.8,3.937-10.162,7.744-5.4,8.729-6.783,18.856-10.726,28.319a1.368,1.368,0,0,0,.688,2.184l4.278,2.241a5.342,5.342,0,0,0,3.124.881,5.122,5.122,0,0,0,2.326-1.225c6.463-5.077,16.581-14.491,17.96-22.978.568-3.5,1-7.149-.031-10.54S1680.634,1923.026,1677.092,1922.862Z" transform="translate(-1644.906 -1922.855)" fill="#efefef"/><path d="M1702.968,1977.024a3.059,3.059,0,0,0-1.969-1.036c-3.268-.544-6.256,1.816-8.592,4.164a78.543,78.543,0,0,0-11.347,14.455c-1.788,2.93-3.429,6.16-3.318,9.591a20.081,20.081,0,0,0,2.193,7.349,10.184,10.184,0,0,0,1.969,3.255,3.465,3.465,0,0,0,3.491.981,5.072,5.072,0,0,0,2.157-2.023q4.384-6.182,8.379-12.627c4.16-6.711,8.121-14.129,7.632-22.009A3.8,3.8,0,0,0,1702.968,1977.024Z" transform="translate(-1650.846 -1937.312)" fill="#e2e2e2"/><path d="M1685.052,2074.329c4.014,1.139,8.678,2.177,12.072-.25a12.172,12.172,0,0,0,3.093-3.659c3.989-6.477,6.334-14.672,3.425-21.7-1.253-3.025-3.372-5.423-5.266-8.038-1.246-1.721-2.011-4.617-4.791-4.091-2.687.509-4.889,3.564-6.478,5.56a94.687,94.687,0,0,0-6.378,9.044,21.853,21.853,0,0,0-3.086,6.773,24.755,24.755,0,0,0,.145,8.429,10.215,10.215,0,0,0,1.474,4.8C1680.584,2073,1682.9,2073.719,1685.052,2074.329Z" transform="translate(-1650.736 -1953.83)" fill="#e2e2e2"/><path d="M1745.445,2001.168c8.342-4.893,12.958-14.231,16.125-23.368a10.707,10.707,0,0,0,.825-4.2,3.845,3.845,0,0,0-2.241-3.408,5.439,5.439,0,0,0-3.388.228,54.47,54.47,0,0,0-7.1,2.676,17.336,17.336,0,0,0-2.667,1.45,20.573,20.573,0,0,0-4.61,5.034c-3.675,5.04-7.549,10.967-6.119,17.039.74,3.142,3.6,6.153,6.777,5.56A7.582,7.582,0,0,0,1745.445,2001.168Z" transform="translate(-1666.713 -1935.701)" fill="#efefef"/><path d="M1747.808,2057.421c1.063-3.729,1.974-8.151-.488-11.148a10.031,10.031,0,0,0-4.919-2.882,27.741,27.741,0,0,0-5.14-1.078,5.877,5.877,0,0,0-3.415.373,6.073,6.073,0,0,0-1.878,1.809c-3.186,4.2-7.1,9.975-7.219,15.409-.1,4.627,1.652,13.9,7.942,13.239a9.116,9.116,0,0,0,4.057-1.83C1742.6,2067.3,1745.868,2064.228,1747.808,2057.421Z" transform="translate(-1663.656 -1955.383)" fill="#e2e2e2"/><path d="M1642.189,2065.662a59.483,59.483,0,0,0,7.924,13.511,3.323,3.323,0,0,0,3.983,1.565c2.34-.382,4.951-1.168,5.971-3.308.717-1.5.435-3.264.3-4.924a26.14,26.14,0,0,1,.844-9.1c.72-2.615,1.852-5.132,2.2-7.822s-.265-5.729-2.413-7.384a10.7,10.7,0,0,0-4.454-1.67,5.212,5.212,0,0,0-1.735-.159,5.752,5.752,0,0,0-2.335,1.13c-2.4,1.607-5.019,2.9-7.265,4.718s-4.148,4.316-4.4,7.2A13.377,13.377,0,0,0,1642.189,2065.662Z" transform="translate(-1640.775 -1956.505)" fill="#e2e2e2"/></g><path d="M602.148,1849.975c-18.492,9.053-27.335,26.092-35.894,43.366-2.564-1.931-5.171-3.807-7.685-5.8-15.842-12.571-15.852-12.592-3.224-29.251,9.511-12.545,20.97-22.367,36.656-26.407,6.586-1.7,11.307-1.737,9.857,7.412C601.31,1842.751,602.014,1846.409,602.148,1849.975Z" transform="translate(-147.662 -17.09)" fill="#535098"/><g transform="translate(-5.594 -9.586)"><text transform="translate(485.218 1922.12)" fill="#fff" font-size="21" font-family="Moderat-Extended-Bold, Moderat Extended" font-weight="700" letter-spacing="-0.05em"><tspan x="0" y="0">01</tspan></text><text transform="translate(485.218 1968.686)" fill="#2e2e2e" font-size="21" font-family="Moderat-Extended-Bold, Moderat Extended" font-weight="700"><tspan x="0" y="0">Elegí</tspan><tspan x="0" y="21">el seguro.</tspan></text></g><g transform="translate(-5.594 -12.781)"><text transform="translate(1027 1925.315)" fill="#fff" font-size="21" font-family="Moderat-Extended-Bold, Moderat Extended" font-weight="700" letter-spacing="-0.05em"><tspan x="0" y="0">03</tspan></text><text transform="translate(1027 1971.881)" fill="#2e2e2e" font-size="21" font-family="Moderat-Extended-Bold, Moderat Extended" font-weight="700"><tspan x="0" y="0">Contratá </tspan><tspan x="0" y="21">online.</tspan></text></g><g transform="translate(-5.594 -9.586)"><text transform="translate(748.001 1921.12)" fill="#fff" font-size="20" font-family="Moderat-Extended-Bold, Moderat Extended" font-weight="700" letter-spacing="-0.05em"><tspan x="0" y="0">02</tspan></text><text transform="translate(748 1968.686)" fill="#2e2e2e" font-size="21" font-family="Moderat-Extended-Bold, Moderat Extended" font-weight="700"><tspan x="0" y="0">Completá </tspan><tspan x="0" y="21">tus datos.</tspan></text></g></g></g></svg>